<mxfile host="app.diagrams.net" modified="2023-11-13T02:26:30.490Z" agent="Mozilla/5.0 (Windows NT 10.0; Win64; x64) AppleWebKit/537.36 (KHTML, like Gecko) Chrome/119.0.0.0 Safari/537.36" etag="pRN3S0cMD6otWtZhkFxs" version="21.8.1" type="github">
  <diagram id="R2lEEEUBdFMjLlhIrx00" name="Page-1">
    <mxGraphModel dx="1290" dy="566" grid="1" gridSize="10" guides="1" tooltips="1" connect="1" arrows="1" fold="1" page="1" pageScale="1" pageWidth="850" pageHeight="1100" math="0" shadow="0" extFonts="Permanent Marker^https://fonts.googleapis.com/css?family=Permanent+Marker">
      <root>
        <mxCell id="0" />
        <mxCell id="1" parent="0" />
        <mxCell id="dMxM86Cvyjp5TYeBCImO-160" value="&lt;table style=&quot;border-collapse:&lt;br/&gt; collapse;width:112pt&quot; width=&quot;150&quot; cellspacing=&quot;0&quot; cellpadding=&quot;0&quot; border=&quot;0&quot;&gt;&lt;tbody&gt;&lt;tr style=&quot;mso-height-source:userset;height:14.4pt&quot; height=&quot;19&quot;&gt;&lt;br/&gt;  &lt;td style=&quot;height:14.4pt;width:112pt&quot; width=&quot;150&quot; class=&quot;xl66&quot; height=&quot;19&quot;&gt;CLINICAL_NOTES&lt;/td&gt;&lt;/tr&gt;&lt;/tbody&gt;&lt;/table&gt;" style="shape=table;startSize=30;container=1;collapsible=1;childLayout=tableLayout;fixedRows=1;rowLines=0;fontStyle=1;align=center;resizeLast=1;html=1;" vertex="1" parent="1">
          <mxGeometry x="200" y="130" width="180" height="250" as="geometry" />
        </mxCell>
        <mxCell id="dMxM86Cvyjp5TYeBCImO-161" value="" style="shape=tableRow;horizontal=0;startSize=0;swimlaneHead=0;swimlaneBody=0;fillColor=none;collapsible=0;dropTarget=0;points=[[0,0.5],[1,0.5]];portConstraint=eastwest;top=0;left=0;right=0;bottom=1;" vertex="1" parent="dMxM86Cvyjp5TYeBCImO-160">
          <mxGeometry y="30" width="180" height="30" as="geometry" />
        </mxCell>
        <mxCell id="dMxM86Cvyjp5TYeBCImO-162" value="PK" style="shape=partialRectangle;connectable=0;fillColor=none;top=0;left=0;bottom=0;right=0;fontStyle=1;overflow=hidden;whiteSpace=wrap;html=1;" vertex="1" parent="dMxM86Cvyjp5TYeBCImO-161">
          <mxGeometry width="30" height="30" as="geometry">
            <mxRectangle width="30" height="30" as="alternateBounds" />
          </mxGeometry>
        </mxCell>
        <mxCell id="dMxM86Cvyjp5TYeBCImO-163" value="PATIENT_ID" style="shape=partialRectangle;connectable=0;fillColor=none;top=0;left=0;bottom=0;right=0;align=left;spacingLeft=6;fontStyle=5;overflow=hidden;whiteSpace=wrap;html=1;" vertex="1" parent="dMxM86Cvyjp5TYeBCImO-161">
          <mxGeometry x="30" width="150" height="30" as="geometry">
            <mxRectangle width="150" height="30" as="alternateBounds" />
          </mxGeometry>
        </mxCell>
        <mxCell id="dMxM86Cvyjp5TYeBCImO-164" value="" style="shape=tableRow;horizontal=0;startSize=0;swimlaneHead=0;swimlaneBody=0;fillColor=none;collapsible=0;dropTarget=0;points=[[0,0.5],[1,0.5]];portConstraint=eastwest;top=0;left=0;right=0;bottom=0;" vertex="1" parent="dMxM86Cvyjp5TYeBCImO-160">
          <mxGeometry y="60" width="180" height="30" as="geometry" />
        </mxCell>
        <mxCell id="dMxM86Cvyjp5TYeBCImO-165" value="" style="shape=partialRectangle;connectable=0;fillColor=none;top=0;left=0;bottom=0;right=0;editable=1;overflow=hidden;whiteSpace=wrap;html=1;" vertex="1" parent="dMxM86Cvyjp5TYeBCImO-164">
          <mxGeometry width="30" height="30" as="geometry">
            <mxRectangle width="30" height="30" as="alternateBounds" />
          </mxGeometry>
        </mxCell>
        <mxCell id="dMxM86Cvyjp5TYeBCImO-166" value="PATIENT_FNAME" style="shape=partialRectangle;connectable=0;fillColor=none;top=0;left=0;bottom=0;right=0;align=left;spacingLeft=6;overflow=hidden;whiteSpace=wrap;html=1;" vertex="1" parent="dMxM86Cvyjp5TYeBCImO-164">
          <mxGeometry x="30" width="150" height="30" as="geometry">
            <mxRectangle width="150" height="30" as="alternateBounds" />
          </mxGeometry>
        </mxCell>
        <mxCell id="dMxM86Cvyjp5TYeBCImO-167" value="" style="shape=tableRow;horizontal=0;startSize=0;swimlaneHead=0;swimlaneBody=0;fillColor=none;collapsible=0;dropTarget=0;points=[[0,0.5],[1,0.5]];portConstraint=eastwest;top=0;left=0;right=0;bottom=0;" vertex="1" parent="dMxM86Cvyjp5TYeBCImO-160">
          <mxGeometry y="90" width="180" height="30" as="geometry" />
        </mxCell>
        <mxCell id="dMxM86Cvyjp5TYeBCImO-168" value="" style="shape=partialRectangle;connectable=0;fillColor=none;top=0;left=0;bottom=0;right=0;editable=1;overflow=hidden;whiteSpace=wrap;html=1;" vertex="1" parent="dMxM86Cvyjp5TYeBCImO-167">
          <mxGeometry width="30" height="30" as="geometry">
            <mxRectangle width="30" height="30" as="alternateBounds" />
          </mxGeometry>
        </mxCell>
        <mxCell id="dMxM86Cvyjp5TYeBCImO-169" value="PATIENT_LNAME" style="shape=partialRectangle;connectable=0;fillColor=none;top=0;left=0;bottom=0;right=0;align=left;spacingLeft=6;overflow=hidden;whiteSpace=wrap;html=1;" vertex="1" parent="dMxM86Cvyjp5TYeBCImO-167">
          <mxGeometry x="30" width="150" height="30" as="geometry">
            <mxRectangle width="150" height="30" as="alternateBounds" />
          </mxGeometry>
        </mxCell>
        <mxCell id="dMxM86Cvyjp5TYeBCImO-170" value="" style="shape=tableRow;horizontal=0;startSize=0;swimlaneHead=0;swimlaneBody=0;fillColor=none;collapsible=0;dropTarget=0;points=[[0,0.5],[1,0.5]];portConstraint=eastwest;top=0;left=0;right=0;bottom=0;" vertex="1" parent="dMxM86Cvyjp5TYeBCImO-160">
          <mxGeometry y="120" width="180" height="30" as="geometry" />
        </mxCell>
        <mxCell id="dMxM86Cvyjp5TYeBCImO-171" value="" style="shape=partialRectangle;connectable=0;fillColor=none;top=0;left=0;bottom=0;right=0;editable=1;overflow=hidden;whiteSpace=wrap;html=1;" vertex="1" parent="dMxM86Cvyjp5TYeBCImO-170">
          <mxGeometry width="30" height="30" as="geometry">
            <mxRectangle width="30" height="30" as="alternateBounds" />
          </mxGeometry>
        </mxCell>
        <mxCell id="dMxM86Cvyjp5TYeBCImO-172" value="PATIENT_GENDER" style="shape=partialRectangle;connectable=0;fillColor=none;top=0;left=0;bottom=0;right=0;align=left;spacingLeft=6;overflow=hidden;whiteSpace=wrap;html=1;" vertex="1" parent="dMxM86Cvyjp5TYeBCImO-170">
          <mxGeometry x="30" width="150" height="30" as="geometry">
            <mxRectangle width="150" height="30" as="alternateBounds" />
          </mxGeometry>
        </mxCell>
        <mxCell id="dMxM86Cvyjp5TYeBCImO-176" style="shape=tableRow;horizontal=0;startSize=0;swimlaneHead=0;swimlaneBody=0;fillColor=none;collapsible=0;dropTarget=0;points=[[0,0.5],[1,0.5]];portConstraint=eastwest;top=0;left=0;right=0;bottom=0;" vertex="1" parent="dMxM86Cvyjp5TYeBCImO-160">
          <mxGeometry y="150" width="180" height="70" as="geometry" />
        </mxCell>
        <mxCell id="dMxM86Cvyjp5TYeBCImO-177" style="shape=partialRectangle;connectable=0;fillColor=none;top=0;left=0;bottom=0;right=0;editable=1;overflow=hidden;whiteSpace=wrap;html=1;" vertex="1" parent="dMxM86Cvyjp5TYeBCImO-176">
          <mxGeometry width="30" height="70" as="geometry">
            <mxRectangle width="30" height="70" as="alternateBounds" />
          </mxGeometry>
        </mxCell>
        <mxCell id="dMxM86Cvyjp5TYeBCImO-178" value="&lt;table style=&quot;border-collapse:&lt;br/&gt; collapse;width:129pt&quot; width=&quot;172&quot; cellspacing=&quot;0&quot; cellpadding=&quot;0&quot; border=&quot;0&quot;&gt;&lt;tbody&gt;&lt;tr style=&quot;height:27.6pt&quot; height=&quot;37&quot;&gt;&lt;br/&gt;  &lt;td style=&quot;height:27.6pt;width:129pt&quot; width=&quot;172&quot; class=&quot;xl67&quot; height=&quot;37&quot;&gt;PATIENT_CONTACT&lt;br&gt;&lt;br/&gt;    _NUMBER&lt;/td&gt;&lt;/tr&gt;&lt;/tbody&gt;&lt;/table&gt;" style="shape=partialRectangle;connectable=0;fillColor=none;top=0;left=0;bottom=0;right=0;align=left;spacingLeft=6;overflow=hidden;whiteSpace=wrap;html=1;" vertex="1" parent="dMxM86Cvyjp5TYeBCImO-176">
          <mxGeometry x="30" width="150" height="70" as="geometry">
            <mxRectangle width="150" height="70" as="alternateBounds" />
          </mxGeometry>
        </mxCell>
        <mxCell id="dMxM86Cvyjp5TYeBCImO-173" style="shape=tableRow;horizontal=0;startSize=0;swimlaneHead=0;swimlaneBody=0;fillColor=none;collapsible=0;dropTarget=0;points=[[0,0.5],[1,0.5]];portConstraint=eastwest;top=0;left=0;right=0;bottom=0;" vertex="1" parent="dMxM86Cvyjp5TYeBCImO-160">
          <mxGeometry y="220" width="180" height="30" as="geometry" />
        </mxCell>
        <mxCell id="dMxM86Cvyjp5TYeBCImO-174" style="shape=partialRectangle;connectable=0;fillColor=none;top=0;left=0;bottom=0;right=0;editable=1;overflow=hidden;whiteSpace=wrap;html=1;" vertex="1" parent="dMxM86Cvyjp5TYeBCImO-173">
          <mxGeometry width="30" height="30" as="geometry">
            <mxRectangle width="30" height="30" as="alternateBounds" />
          </mxGeometry>
        </mxCell>
        <mxCell id="dMxM86Cvyjp5TYeBCImO-175" value="" style="shape=partialRectangle;connectable=0;fillColor=none;top=0;left=0;bottom=0;right=0;align=left;spacingLeft=6;overflow=hidden;whiteSpace=wrap;html=1;" vertex="1" parent="dMxM86Cvyjp5TYeBCImO-173">
          <mxGeometry x="30" width="150" height="30" as="geometry">
            <mxRectangle width="150" height="30" as="alternateBounds" />
          </mxGeometry>
        </mxCell>
        <mxCell id="dMxM86Cvyjp5TYeBCImO-179" value="&lt;table style=&quot;border-collapse:&lt;br/&gt; collapse;width:112pt&quot; width=&quot;150&quot; cellspacing=&quot;0&quot; cellpadding=&quot;0&quot; border=&quot;0&quot;&gt;&lt;tbody&gt;&lt;tr style=&quot;mso-height-source:userset;height:14.4pt&quot; height=&quot;19&quot;&gt;&lt;td style=&quot;height:14.4pt;width:112pt&quot; width=&quot;150&quot; class=&quot;xl66&quot; height=&quot;19&quot;&gt;&lt;/td&gt;&lt;/tr&gt;&lt;/tbody&gt;&lt;/table&gt;ADMISSION" style="shape=table;startSize=30;container=1;collapsible=1;childLayout=tableLayout;fixedRows=1;rowLines=0;fontStyle=1;align=center;resizeLast=1;html=1;" vertex="1" parent="1">
          <mxGeometry x="510" y="140" width="180" height="270" as="geometry" />
        </mxCell>
        <mxCell id="dMxM86Cvyjp5TYeBCImO-180" value="" style="shape=tableRow;horizontal=0;startSize=0;swimlaneHead=0;swimlaneBody=0;fillColor=none;collapsible=0;dropTarget=0;points=[[0,0.5],[1,0.5]];portConstraint=eastwest;top=0;left=0;right=0;bottom=1;" vertex="1" parent="dMxM86Cvyjp5TYeBCImO-179">
          <mxGeometry y="30" width="180" height="40" as="geometry" />
        </mxCell>
        <mxCell id="dMxM86Cvyjp5TYeBCImO-181" value="PK" style="shape=partialRectangle;connectable=0;fillColor=none;top=0;left=0;bottom=0;right=0;fontStyle=1;overflow=hidden;whiteSpace=wrap;html=1;" vertex="1" parent="dMxM86Cvyjp5TYeBCImO-180">
          <mxGeometry width="30" height="40" as="geometry">
            <mxRectangle width="30" height="40" as="alternateBounds" />
          </mxGeometry>
        </mxCell>
        <mxCell id="dMxM86Cvyjp5TYeBCImO-182" value="&lt;table style=&quot;border-collapse:&lt;br/&gt; collapse;width:112pt&quot; width=&quot;150&quot; cellspacing=&quot;0&quot; cellpadding=&quot;0&quot; border=&quot;0&quot;&gt;&lt;tbody&gt;&lt;tr style=&quot;mso-height-source:userset;height:14.4pt&quot; height=&quot;19&quot;&gt;&lt;br/&gt;  &lt;td style=&quot;height:14.4pt;width:112pt&quot; width=&quot;150&quot; class=&quot;xl66&quot; height=&quot;19&quot;&gt;ADMISSION_ID&lt;/td&gt;&lt;/tr&gt;&lt;/tbody&gt;&lt;/table&gt;" style="shape=partialRectangle;connectable=0;fillColor=none;top=0;left=0;bottom=0;right=0;align=left;spacingLeft=6;fontStyle=5;overflow=hidden;whiteSpace=wrap;html=1;" vertex="1" parent="dMxM86Cvyjp5TYeBCImO-180">
          <mxGeometry x="30" width="150" height="40" as="geometry">
            <mxRectangle width="150" height="40" as="alternateBounds" />
          </mxGeometry>
        </mxCell>
        <mxCell id="dMxM86Cvyjp5TYeBCImO-198" value="" style="shape=tableRow;horizontal=0;startSize=0;swimlaneHead=0;swimlaneBody=0;fillColor=none;collapsible=0;dropTarget=0;points=[[0,0.5],[1,0.5]];portConstraint=eastwest;top=0;left=0;right=0;bottom=0;" vertex="1" parent="dMxM86Cvyjp5TYeBCImO-179">
          <mxGeometry y="70" width="180" height="30" as="geometry" />
        </mxCell>
        <mxCell id="dMxM86Cvyjp5TYeBCImO-199" value="FK" style="shape=partialRectangle;connectable=0;fillColor=none;top=0;left=0;bottom=0;right=0;fontStyle=0;overflow=hidden;whiteSpace=wrap;html=1;" vertex="1" parent="dMxM86Cvyjp5TYeBCImO-198">
          <mxGeometry width="30" height="30" as="geometry">
            <mxRectangle width="30" height="30" as="alternateBounds" />
          </mxGeometry>
        </mxCell>
        <mxCell id="dMxM86Cvyjp5TYeBCImO-200" value="PATIENT_ID" style="shape=partialRectangle;connectable=0;fillColor=none;top=0;left=0;bottom=0;right=0;align=left;spacingLeft=6;fontStyle=0;overflow=hidden;whiteSpace=wrap;html=1;" vertex="1" parent="dMxM86Cvyjp5TYeBCImO-198">
          <mxGeometry x="30" width="150" height="30" as="geometry">
            <mxRectangle width="150" height="30" as="alternateBounds" />
          </mxGeometry>
        </mxCell>
        <mxCell id="dMxM86Cvyjp5TYeBCImO-183" value="" style="shape=tableRow;horizontal=0;startSize=0;swimlaneHead=0;swimlaneBody=0;fillColor=none;collapsible=0;dropTarget=0;points=[[0,0.5],[1,0.5]];portConstraint=eastwest;top=0;left=0;right=0;bottom=0;" vertex="1" parent="dMxM86Cvyjp5TYeBCImO-179">
          <mxGeometry y="100" width="180" height="40" as="geometry" />
        </mxCell>
        <mxCell id="dMxM86Cvyjp5TYeBCImO-184" value="" style="shape=partialRectangle;connectable=0;fillColor=none;top=0;left=0;bottom=0;right=0;editable=1;overflow=hidden;whiteSpace=wrap;html=1;" vertex="1" parent="dMxM86Cvyjp5TYeBCImO-183">
          <mxGeometry width="30" height="40" as="geometry">
            <mxRectangle width="30" height="40" as="alternateBounds" />
          </mxGeometry>
        </mxCell>
        <mxCell id="dMxM86Cvyjp5TYeBCImO-185" value="&lt;table style=&quot;border-collapse:&lt;br/&gt; collapse;width:129pt&quot; width=&quot;172&quot; cellspacing=&quot;0&quot; cellpadding=&quot;0&quot; border=&quot;0&quot;&gt;&lt;tbody&gt;&lt;tr style=&quot;height:13.8pt&quot; height=&quot;18&quot;&gt;&lt;br/&gt;  &lt;td style=&quot;height:13.8pt;width:129pt&quot; width=&quot;172&quot; class=&quot;xl66&quot; height=&quot;18&quot;&gt;ADMISSION_DATE&lt;/td&gt;&lt;/tr&gt;&lt;/tbody&gt;&lt;/table&gt;" style="shape=partialRectangle;connectable=0;fillColor=none;top=0;left=0;bottom=0;right=0;align=left;spacingLeft=6;overflow=hidden;whiteSpace=wrap;html=1;" vertex="1" parent="dMxM86Cvyjp5TYeBCImO-183">
          <mxGeometry x="30" width="150" height="40" as="geometry">
            <mxRectangle width="150" height="40" as="alternateBounds" />
          </mxGeometry>
        </mxCell>
        <mxCell id="dMxM86Cvyjp5TYeBCImO-186" value="" style="shape=tableRow;horizontal=0;startSize=0;swimlaneHead=0;swimlaneBody=0;fillColor=none;collapsible=0;dropTarget=0;points=[[0,0.5],[1,0.5]];portConstraint=eastwest;top=0;left=0;right=0;bottom=0;" vertex="1" parent="dMxM86Cvyjp5TYeBCImO-179">
          <mxGeometry y="140" width="180" height="50" as="geometry" />
        </mxCell>
        <mxCell id="dMxM86Cvyjp5TYeBCImO-187" value="" style="shape=partialRectangle;connectable=0;fillColor=none;top=0;left=0;bottom=0;right=0;editable=1;overflow=hidden;whiteSpace=wrap;html=1;" vertex="1" parent="dMxM86Cvyjp5TYeBCImO-186">
          <mxGeometry width="30" height="50" as="geometry">
            <mxRectangle width="30" height="50" as="alternateBounds" />
          </mxGeometry>
        </mxCell>
        <mxCell id="dMxM86Cvyjp5TYeBCImO-188" value="&lt;table style=&quot;border-collapse:&lt;br/&gt; collapse;width:129pt&quot; width=&quot;172&quot; cellspacing=&quot;0&quot; cellpadding=&quot;0&quot; border=&quot;0&quot;&gt;&lt;tbody&gt;&lt;tr style=&quot;height:13.8pt&quot; height=&quot;18&quot;&gt;&lt;br/&gt;  &lt;td style=&quot;height:13.8pt;width:129pt&quot; width=&quot;172&quot; class=&quot;xl66&quot; height=&quot;18&quot;&gt;DISCHARGE_DATE&lt;/td&gt;&lt;/tr&gt;&lt;/tbody&gt;&lt;/table&gt;" style="shape=partialRectangle;connectable=0;fillColor=none;top=0;left=0;bottom=0;right=0;align=left;spacingLeft=6;overflow=hidden;whiteSpace=wrap;html=1;" vertex="1" parent="dMxM86Cvyjp5TYeBCImO-186">
          <mxGeometry x="30" width="150" height="50" as="geometry">
            <mxRectangle width="150" height="50" as="alternateBounds" />
          </mxGeometry>
        </mxCell>
        <mxCell id="dMxM86Cvyjp5TYeBCImO-189" value="" style="shape=tableRow;horizontal=0;startSize=0;swimlaneHead=0;swimlaneBody=0;fillColor=none;collapsible=0;dropTarget=0;points=[[0,0.5],[1,0.5]];portConstraint=eastwest;top=0;left=0;right=0;bottom=0;" vertex="1" parent="dMxM86Cvyjp5TYeBCImO-179">
          <mxGeometry y="190" width="180" height="30" as="geometry" />
        </mxCell>
        <mxCell id="dMxM86Cvyjp5TYeBCImO-190" value="" style="shape=partialRectangle;connectable=0;fillColor=none;top=0;left=0;bottom=0;right=0;editable=1;overflow=hidden;whiteSpace=wrap;html=1;" vertex="1" parent="dMxM86Cvyjp5TYeBCImO-189">
          <mxGeometry width="30" height="30" as="geometry">
            <mxRectangle width="30" height="30" as="alternateBounds" />
          </mxGeometry>
        </mxCell>
        <mxCell id="dMxM86Cvyjp5TYeBCImO-191" value="PATIENT_GENDER" style="shape=partialRectangle;connectable=0;fillColor=none;top=0;left=0;bottom=0;right=0;align=left;spacingLeft=6;overflow=hidden;whiteSpace=wrap;html=1;" vertex="1" parent="dMxM86Cvyjp5TYeBCImO-189">
          <mxGeometry x="30" width="150" height="30" as="geometry">
            <mxRectangle width="150" height="30" as="alternateBounds" />
          </mxGeometry>
        </mxCell>
        <mxCell id="dMxM86Cvyjp5TYeBCImO-192" style="shape=tableRow;horizontal=0;startSize=0;swimlaneHead=0;swimlaneBody=0;fillColor=none;collapsible=0;dropTarget=0;points=[[0,0.5],[1,0.5]];portConstraint=eastwest;top=0;left=0;right=0;bottom=0;" vertex="1" parent="dMxM86Cvyjp5TYeBCImO-179">
          <mxGeometry y="220" width="180" height="50" as="geometry" />
        </mxCell>
        <mxCell id="dMxM86Cvyjp5TYeBCImO-193" style="shape=partialRectangle;connectable=0;fillColor=none;top=0;left=0;bottom=0;right=0;editable=1;overflow=hidden;whiteSpace=wrap;html=1;" vertex="1" parent="dMxM86Cvyjp5TYeBCImO-192">
          <mxGeometry width="30" height="50" as="geometry">
            <mxRectangle width="30" height="50" as="alternateBounds" />
          </mxGeometry>
        </mxCell>
        <mxCell id="dMxM86Cvyjp5TYeBCImO-194" value="ROOM_NUMBER&lt;br&gt;&lt;table style=&quot;border-collapse:&lt;br/&gt; collapse;width:129pt&quot; width=&quot;172&quot; cellspacing=&quot;0&quot; cellpadding=&quot;0&quot; border=&quot;0&quot;&gt;&lt;tbody&gt;&lt;tr style=&quot;height:13.8pt&quot; height=&quot;18&quot;&gt;&lt;td style=&quot;height:13.8pt;width:129pt&quot; width=&quot;172&quot; class=&quot;xl66&quot; height=&quot;18&quot;&gt;&lt;/td&gt;&lt;/tr&gt;&lt;/tbody&gt;&lt;/table&gt;" style="shape=partialRectangle;connectable=0;fillColor=none;top=0;left=0;bottom=0;right=0;align=left;spacingLeft=6;overflow=hidden;whiteSpace=wrap;html=1;" vertex="1" parent="dMxM86Cvyjp5TYeBCImO-192">
          <mxGeometry x="30" width="150" height="50" as="geometry">
            <mxRectangle width="150" height="50" as="alternateBounds" />
          </mxGeometry>
        </mxCell>
        <mxCell id="dMxM86Cvyjp5TYeBCImO-201" value="&lt;table style=&quot;border-collapse:&lt;br/&gt; collapse;width:112pt&quot; width=&quot;150&quot; cellspacing=&quot;0&quot; cellpadding=&quot;0&quot; border=&quot;0&quot;&gt;&lt;tbody&gt;&lt;tr style=&quot;height:13.8pt&quot; height=&quot;18&quot;&gt;&lt;br/&gt;  &lt;td style=&quot;height:13.8pt;width:112pt&quot; width=&quot;150&quot; class=&quot;xl66&quot; height=&quot;18&quot;&gt;TREATMENT_PLANS&lt;/td&gt;&lt;/tr&gt;&lt;/tbody&gt;&lt;/table&gt;" style="shape=table;startSize=30;container=1;collapsible=1;childLayout=tableLayout;fixedRows=1;rowLines=0;fontStyle=1;align=center;resizeLast=1;html=1;" vertex="1" parent="1">
          <mxGeometry y="50" width="180" height="310" as="geometry" />
        </mxCell>
        <mxCell id="dMxM86Cvyjp5TYeBCImO-202" value="" style="shape=tableRow;horizontal=0;startSize=0;swimlaneHead=0;swimlaneBody=0;fillColor=none;collapsible=0;dropTarget=0;points=[[0,0.5],[1,0.5]];portConstraint=eastwest;top=0;left=0;right=0;bottom=1;" vertex="1" parent="dMxM86Cvyjp5TYeBCImO-201">
          <mxGeometry y="30" width="180" height="40" as="geometry" />
        </mxCell>
        <mxCell id="dMxM86Cvyjp5TYeBCImO-203" value="PK" style="shape=partialRectangle;connectable=0;fillColor=none;top=0;left=0;bottom=0;right=0;fontStyle=1;overflow=hidden;whiteSpace=wrap;html=1;" vertex="1" parent="dMxM86Cvyjp5TYeBCImO-202">
          <mxGeometry width="30" height="40" as="geometry">
            <mxRectangle width="30" height="40" as="alternateBounds" />
          </mxGeometry>
        </mxCell>
        <mxCell id="dMxM86Cvyjp5TYeBCImO-204" value="&lt;table style=&quot;border-collapse:&lt;br/&gt; collapse;width:112pt&quot; width=&quot;150&quot; cellspacing=&quot;0&quot; cellpadding=&quot;0&quot; border=&quot;0&quot;&gt;&lt;tbody&gt;&lt;tr style=&quot;mso-height-source:userset;height:14.4pt&quot; height=&quot;19&quot;&gt;&lt;td style=&quot;height:14.4pt;width:112pt&quot; width=&quot;150&quot; class=&quot;xl66&quot; height=&quot;19&quot;&gt;&lt;table style=&quot;border-collapse:&lt;br/&gt; collapse;width:129pt&quot; width=&quot;172&quot; cellspacing=&quot;0&quot; cellpadding=&quot;0&quot; border=&quot;0&quot;&gt;&lt;tbody&gt;&lt;tr style=&quot;height:13.8pt&quot; height=&quot;18&quot;&gt;&lt;br/&gt;  &lt;td style=&quot;height:13.8pt;width:129pt&quot; width=&quot;172&quot; class=&quot;xl66&quot; height=&quot;18&quot;&gt;PLAN_ID&lt;/td&gt;&lt;/tr&gt;&lt;/tbody&gt;&lt;/table&gt;&lt;/td&gt;&lt;/tr&gt;&lt;/tbody&gt;&lt;/table&gt;" style="shape=partialRectangle;connectable=0;fillColor=none;top=0;left=0;bottom=0;right=0;align=left;spacingLeft=6;fontStyle=5;overflow=hidden;whiteSpace=wrap;html=1;" vertex="1" parent="dMxM86Cvyjp5TYeBCImO-202">
          <mxGeometry x="30" width="150" height="40" as="geometry">
            <mxRectangle width="150" height="40" as="alternateBounds" />
          </mxGeometry>
        </mxCell>
        <mxCell id="dMxM86Cvyjp5TYeBCImO-205" value="" style="shape=tableRow;horizontal=0;startSize=0;swimlaneHead=0;swimlaneBody=0;fillColor=none;collapsible=0;dropTarget=0;points=[[0,0.5],[1,0.5]];portConstraint=eastwest;top=0;left=0;right=0;bottom=0;" vertex="1" parent="dMxM86Cvyjp5TYeBCImO-201">
          <mxGeometry y="70" width="180" height="30" as="geometry" />
        </mxCell>
        <mxCell id="dMxM86Cvyjp5TYeBCImO-206" value="FK" style="shape=partialRectangle;connectable=0;fillColor=none;top=0;left=0;bottom=0;right=0;fontStyle=0;overflow=hidden;whiteSpace=wrap;html=1;" vertex="1" parent="dMxM86Cvyjp5TYeBCImO-205">
          <mxGeometry width="30" height="30" as="geometry">
            <mxRectangle width="30" height="30" as="alternateBounds" />
          </mxGeometry>
        </mxCell>
        <mxCell id="dMxM86Cvyjp5TYeBCImO-207" value="PATIENT_ID" style="shape=partialRectangle;connectable=0;fillColor=none;top=0;left=0;bottom=0;right=0;align=left;spacingLeft=6;fontStyle=0;overflow=hidden;whiteSpace=wrap;html=1;" vertex="1" parent="dMxM86Cvyjp5TYeBCImO-205">
          <mxGeometry x="30" width="150" height="30" as="geometry">
            <mxRectangle width="150" height="30" as="alternateBounds" />
          </mxGeometry>
        </mxCell>
        <mxCell id="dMxM86Cvyjp5TYeBCImO-208" value="" style="shape=tableRow;horizontal=0;startSize=0;swimlaneHead=0;swimlaneBody=0;fillColor=none;collapsible=0;dropTarget=0;points=[[0,0.5],[1,0.5]];portConstraint=eastwest;top=0;left=0;right=0;bottom=0;" vertex="1" parent="dMxM86Cvyjp5TYeBCImO-201">
          <mxGeometry y="100" width="180" height="70" as="geometry" />
        </mxCell>
        <mxCell id="dMxM86Cvyjp5TYeBCImO-209" value="" style="shape=partialRectangle;connectable=0;fillColor=none;top=0;left=0;bottom=0;right=0;editable=1;overflow=hidden;whiteSpace=wrap;html=1;" vertex="1" parent="dMxM86Cvyjp5TYeBCImO-208">
          <mxGeometry width="30" height="70" as="geometry">
            <mxRectangle width="30" height="70" as="alternateBounds" />
          </mxGeometry>
        </mxCell>
        <mxCell id="dMxM86Cvyjp5TYeBCImO-210" value="&lt;br&gt;&lt;table style=&quot;border-collapse:&lt;br/&gt; collapse;width:129pt&quot; width=&quot;172&quot; cellspacing=&quot;0&quot; cellpadding=&quot;0&quot; border=&quot;0&quot;&gt;&lt;tbody&gt;&lt;tr style=&quot;height:13.8pt&quot; height=&quot;18&quot;&gt;  &lt;td style=&quot;height:13.8pt;width:129pt&quot; width=&quot;172&quot; class=&quot;xl66&quot; height=&quot;18&quot;&gt;&lt;table style=&quot;border-collapse:&lt;br/&gt; collapse;width:129pt&quot; width=&quot;172&quot; cellspacing=&quot;0&quot; cellpadding=&quot;0&quot; border=&quot;0&quot;&gt;&lt;tbody&gt;&lt;tr style=&quot;height:13.8pt&quot; height=&quot;18&quot;&gt;&lt;br/&gt;  &lt;td style=&quot;height:13.8pt;width:129pt&quot; width=&quot;172&quot; class=&quot;xl66&quot; height=&quot;18&quot;&gt;START_DATE&lt;/td&gt;&lt;/tr&gt;&lt;/tbody&gt;&lt;/table&gt;&lt;/td&gt;&lt;/tr&gt;&lt;/tbody&gt;&lt;/table&gt;" style="shape=partialRectangle;connectable=0;fillColor=none;top=0;left=0;bottom=0;right=0;align=left;spacingLeft=6;overflow=hidden;whiteSpace=wrap;html=1;" vertex="1" parent="dMxM86Cvyjp5TYeBCImO-208">
          <mxGeometry x="30" width="150" height="70" as="geometry">
            <mxRectangle width="150" height="70" as="alternateBounds" />
          </mxGeometry>
        </mxCell>
        <mxCell id="dMxM86Cvyjp5TYeBCImO-211" value="" style="shape=tableRow;horizontal=0;startSize=0;swimlaneHead=0;swimlaneBody=0;fillColor=none;collapsible=0;dropTarget=0;points=[[0,0.5],[1,0.5]];portConstraint=eastwest;top=0;left=0;right=0;bottom=0;" vertex="1" parent="dMxM86Cvyjp5TYeBCImO-201">
          <mxGeometry y="170" width="180" height="50" as="geometry" />
        </mxCell>
        <mxCell id="dMxM86Cvyjp5TYeBCImO-212" value="" style="shape=partialRectangle;connectable=0;fillColor=none;top=0;left=0;bottom=0;right=0;editable=1;overflow=hidden;whiteSpace=wrap;html=1;" vertex="1" parent="dMxM86Cvyjp5TYeBCImO-211">
          <mxGeometry width="30" height="50" as="geometry">
            <mxRectangle width="30" height="50" as="alternateBounds" />
          </mxGeometry>
        </mxCell>
        <mxCell id="dMxM86Cvyjp5TYeBCImO-213" value="&lt;br&gt;&lt;table style=&quot;border-collapse:&lt;br/&gt; collapse;width:129pt&quot; width=&quot;172&quot; cellspacing=&quot;0&quot; cellpadding=&quot;0&quot; border=&quot;0&quot;&gt;&lt;tbody&gt;&lt;tr style=&quot;height:13.8pt&quot; height=&quot;18&quot;&gt;  &lt;td style=&quot;height:13.8pt;width:129pt&quot; width=&quot;172&quot; class=&quot;xl66&quot; height=&quot;18&quot;&gt;END_DATE&lt;/td&gt;&lt;/tr&gt;&lt;/tbody&gt;&lt;/table&gt;" style="shape=partialRectangle;connectable=0;fillColor=none;top=0;left=0;bottom=0;right=0;align=left;spacingLeft=6;overflow=hidden;whiteSpace=wrap;html=1;" vertex="1" parent="dMxM86Cvyjp5TYeBCImO-211">
          <mxGeometry x="30" width="150" height="50" as="geometry">
            <mxRectangle width="150" height="50" as="alternateBounds" />
          </mxGeometry>
        </mxCell>
        <mxCell id="dMxM86Cvyjp5TYeBCImO-214" value="" style="shape=tableRow;horizontal=0;startSize=0;swimlaneHead=0;swimlaneBody=0;fillColor=none;collapsible=0;dropTarget=0;points=[[0,0.5],[1,0.5]];portConstraint=eastwest;top=0;left=0;right=0;bottom=0;" vertex="1" parent="dMxM86Cvyjp5TYeBCImO-201">
          <mxGeometry y="220" width="180" height="70" as="geometry" />
        </mxCell>
        <mxCell id="dMxM86Cvyjp5TYeBCImO-215" value="" style="shape=partialRectangle;connectable=0;fillColor=none;top=0;left=0;bottom=0;right=0;editable=1;overflow=hidden;whiteSpace=wrap;html=1;" vertex="1" parent="dMxM86Cvyjp5TYeBCImO-214">
          <mxGeometry width="30" height="70" as="geometry">
            <mxRectangle width="30" height="70" as="alternateBounds" />
          </mxGeometry>
        </mxCell>
        <mxCell id="dMxM86Cvyjp5TYeBCImO-216" value="&lt;table style=&quot;border-collapse:&lt;br/&gt; collapse;width:129pt&quot; width=&quot;172&quot; cellspacing=&quot;0&quot; cellpadding=&quot;0&quot; border=&quot;0&quot;&gt;&lt;tbody&gt;&lt;tr style=&quot;height:27.6pt&quot; height=&quot;37&quot;&gt;&lt;br/&gt;  &lt;td style=&quot;height:27.6pt;width:129pt&quot; width=&quot;172&quot; class=&quot;xl66&quot; height=&quot;37&quot;&gt;PRIMARY_THERAPIST&lt;/td&gt;&lt;/tr&gt;&lt;/tbody&gt;&lt;/table&gt;" style="shape=partialRectangle;connectable=0;fillColor=none;top=0;left=0;bottom=0;right=0;align=left;spacingLeft=6;overflow=hidden;whiteSpace=wrap;html=1;" vertex="1" parent="dMxM86Cvyjp5TYeBCImO-214">
          <mxGeometry x="30" width="150" height="70" as="geometry">
            <mxRectangle width="150" height="70" as="alternateBounds" />
          </mxGeometry>
        </mxCell>
        <mxCell id="dMxM86Cvyjp5TYeBCImO-220" style="shape=tableRow;horizontal=0;startSize=0;swimlaneHead=0;swimlaneBody=0;fillColor=none;collapsible=0;dropTarget=0;points=[[0,0.5],[1,0.5]];portConstraint=eastwest;top=0;left=0;right=0;bottom=0;" vertex="1" parent="dMxM86Cvyjp5TYeBCImO-201">
          <mxGeometry y="290" width="180" height="20" as="geometry" />
        </mxCell>
        <mxCell id="dMxM86Cvyjp5TYeBCImO-221" style="shape=partialRectangle;connectable=0;fillColor=none;top=0;left=0;bottom=0;right=0;editable=1;overflow=hidden;whiteSpace=wrap;html=1;" vertex="1" parent="dMxM86Cvyjp5TYeBCImO-220">
          <mxGeometry width="30" height="20" as="geometry">
            <mxRectangle width="30" height="20" as="alternateBounds" />
          </mxGeometry>
        </mxCell>
        <mxCell id="dMxM86Cvyjp5TYeBCImO-222" value="" style="shape=partialRectangle;connectable=0;fillColor=none;top=0;left=0;bottom=0;right=0;align=left;spacingLeft=6;overflow=hidden;whiteSpace=wrap;html=1;" vertex="1" parent="dMxM86Cvyjp5TYeBCImO-220">
          <mxGeometry x="30" width="150" height="20" as="geometry">
            <mxRectangle width="150" height="20" as="alternateBounds" />
          </mxGeometry>
        </mxCell>
        <mxCell id="dMxM86Cvyjp5TYeBCImO-223" value="&lt;table style=&quot;border-collapse:&lt;br/&gt; collapse;width:112pt&quot; width=&quot;150&quot; cellspacing=&quot;0&quot; cellpadding=&quot;0&quot; border=&quot;0&quot;&gt;&lt;tbody&gt;&lt;tr style=&quot;height:13.8pt&quot; height=&quot;18&quot;&gt;&lt;br/&gt;  &lt;td style=&quot;height:13.8pt;width:112pt&quot; width=&quot;150&quot; class=&quot;xl66&quot; height=&quot;18&quot;&gt;MEDICATIONS&lt;/td&gt;&lt;/tr&gt;&lt;/tbody&gt;&lt;/table&gt;" style="shape=table;startSize=30;container=1;collapsible=1;childLayout=tableLayout;fixedRows=1;rowLines=0;fontStyle=1;align=center;resizeLast=1;html=1;" vertex="1" parent="1">
          <mxGeometry x="10" y="380" width="180" height="230" as="geometry" />
        </mxCell>
        <mxCell id="dMxM86Cvyjp5TYeBCImO-224" value="" style="shape=tableRow;horizontal=0;startSize=0;swimlaneHead=0;swimlaneBody=0;fillColor=none;collapsible=0;dropTarget=0;points=[[0,0.5],[1,0.5]];portConstraint=eastwest;top=0;left=0;right=0;bottom=1;" vertex="1" parent="dMxM86Cvyjp5TYeBCImO-223">
          <mxGeometry y="30" width="180" height="40" as="geometry" />
        </mxCell>
        <mxCell id="dMxM86Cvyjp5TYeBCImO-225" value="PK" style="shape=partialRectangle;connectable=0;fillColor=none;top=0;left=0;bottom=0;right=0;fontStyle=1;overflow=hidden;whiteSpace=wrap;html=1;" vertex="1" parent="dMxM86Cvyjp5TYeBCImO-224">
          <mxGeometry width="30" height="40" as="geometry">
            <mxRectangle width="30" height="40" as="alternateBounds" />
          </mxGeometry>
        </mxCell>
        <mxCell id="dMxM86Cvyjp5TYeBCImO-226" value="&lt;table style=&quot;border-collapse:&lt;br/&gt; collapse;width:112pt&quot; width=&quot;150&quot; cellspacing=&quot;0&quot; cellpadding=&quot;0&quot; border=&quot;0&quot;&gt;&lt;tbody&gt;&lt;tr style=&quot;height:13.8pt&quot; height=&quot;18&quot;&gt;&lt;br/&gt;  &lt;td style=&quot;height:13.8pt;width:112pt&quot; width=&quot;150&quot; class=&quot;xl66&quot; height=&quot;18&quot;&gt;MEDICATIONS_ID&lt;/td&gt;&lt;/tr&gt;&lt;/tbody&gt;&lt;/table&gt;&lt;table style=&quot;border-collapse:&lt;br/&gt; collapse;width:112pt&quot; width=&quot;150&quot; cellspacing=&quot;0&quot; cellpadding=&quot;0&quot; border=&quot;0&quot;&gt;&lt;tbody&gt;&lt;tr style=&quot;height:13.8pt&quot; height=&quot;18&quot;&gt;&lt;td style=&quot;height:13.8pt;width:112pt&quot; width=&quot;150&quot; class=&quot;xl66&quot; height=&quot;18&quot;&gt;&lt;/td&gt;&lt;/tr&gt;&lt;/tbody&gt;&lt;/table&gt;" style="shape=partialRectangle;connectable=0;fillColor=none;top=0;left=0;bottom=0;right=0;align=left;spacingLeft=6;fontStyle=5;overflow=hidden;whiteSpace=wrap;html=1;" vertex="1" parent="dMxM86Cvyjp5TYeBCImO-224">
          <mxGeometry x="30" width="150" height="40" as="geometry">
            <mxRectangle width="150" height="40" as="alternateBounds" />
          </mxGeometry>
        </mxCell>
        <mxCell id="dMxM86Cvyjp5TYeBCImO-227" value="" style="shape=tableRow;horizontal=0;startSize=0;swimlaneHead=0;swimlaneBody=0;fillColor=none;collapsible=0;dropTarget=0;points=[[0,0.5],[1,0.5]];portConstraint=eastwest;top=0;left=0;right=0;bottom=0;" vertex="1" parent="dMxM86Cvyjp5TYeBCImO-223">
          <mxGeometry y="70" width="180" height="30" as="geometry" />
        </mxCell>
        <mxCell id="dMxM86Cvyjp5TYeBCImO-228" value="FK" style="shape=partialRectangle;connectable=0;fillColor=none;top=0;left=0;bottom=0;right=0;fontStyle=0;overflow=hidden;whiteSpace=wrap;html=1;" vertex="1" parent="dMxM86Cvyjp5TYeBCImO-227">
          <mxGeometry width="30" height="30" as="geometry">
            <mxRectangle width="30" height="30" as="alternateBounds" />
          </mxGeometry>
        </mxCell>
        <mxCell id="dMxM86Cvyjp5TYeBCImO-229" value="PATIENT_ID" style="shape=partialRectangle;connectable=0;fillColor=none;top=0;left=0;bottom=0;right=0;align=left;spacingLeft=6;fontStyle=0;overflow=hidden;whiteSpace=wrap;html=1;" vertex="1" parent="dMxM86Cvyjp5TYeBCImO-227">
          <mxGeometry x="30" width="150" height="30" as="geometry">
            <mxRectangle width="150" height="30" as="alternateBounds" />
          </mxGeometry>
        </mxCell>
        <mxCell id="dMxM86Cvyjp5TYeBCImO-230" value="" style="shape=tableRow;horizontal=0;startSize=0;swimlaneHead=0;swimlaneBody=0;fillColor=none;collapsible=0;dropTarget=0;points=[[0,0.5],[1,0.5]];portConstraint=eastwest;top=0;left=0;right=0;bottom=0;" vertex="1" parent="dMxM86Cvyjp5TYeBCImO-223">
          <mxGeometry y="100" width="180" height="40" as="geometry" />
        </mxCell>
        <mxCell id="dMxM86Cvyjp5TYeBCImO-231" value="" style="shape=partialRectangle;connectable=0;fillColor=none;top=0;left=0;bottom=0;right=0;editable=1;overflow=hidden;whiteSpace=wrap;html=1;" vertex="1" parent="dMxM86Cvyjp5TYeBCImO-230">
          <mxGeometry width="30" height="40" as="geometry">
            <mxRectangle width="30" height="40" as="alternateBounds" />
          </mxGeometry>
        </mxCell>
        <mxCell id="dMxM86Cvyjp5TYeBCImO-232" value="&lt;table style=&quot;border-collapse:&lt;br/&gt; collapse;width:129pt&quot; width=&quot;172&quot; cellspacing=&quot;0&quot; cellpadding=&quot;0&quot; border=&quot;0&quot;&gt;&lt;tbody&gt;&lt;tr style=&quot;height:13.8pt&quot; height=&quot;18&quot;&gt;&lt;td style=&quot;height:13.8pt;width:129pt&quot; width=&quot;172&quot; class=&quot;xl66&quot; height=&quot;18&quot;&gt;&lt;/td&gt;&lt;/tr&gt;&lt;/tbody&gt;&lt;/table&gt;&lt;table style=&quot;border-collapse:&lt;br/&gt; collapse;width:129pt&quot; width=&quot;172&quot; cellspacing=&quot;0&quot; cellpadding=&quot;0&quot; border=&quot;0&quot;&gt;&lt;tbody&gt;&lt;tr style=&quot;height:13.8pt&quot; height=&quot;18&quot;&gt;  &lt;td style=&quot;height:13.8pt;width:129pt&quot; width=&quot;172&quot; class=&quot;xl66&quot; height=&quot;18&quot;&gt;MEDICATION_NAME&lt;/td&gt;&lt;/tr&gt;&lt;/tbody&gt;&lt;/table&gt;" style="shape=partialRectangle;connectable=0;fillColor=none;top=0;left=0;bottom=0;right=0;align=left;spacingLeft=6;overflow=hidden;whiteSpace=wrap;html=1;" vertex="1" parent="dMxM86Cvyjp5TYeBCImO-230">
          <mxGeometry x="30" width="150" height="40" as="geometry">
            <mxRectangle width="150" height="40" as="alternateBounds" />
          </mxGeometry>
        </mxCell>
        <mxCell id="dMxM86Cvyjp5TYeBCImO-233" value="" style="shape=tableRow;horizontal=0;startSize=0;swimlaneHead=0;swimlaneBody=0;fillColor=none;collapsible=0;dropTarget=0;points=[[0,0.5],[1,0.5]];portConstraint=eastwest;top=0;left=0;right=0;bottom=0;" vertex="1" parent="dMxM86Cvyjp5TYeBCImO-223">
          <mxGeometry y="140" width="180" height="50" as="geometry" />
        </mxCell>
        <mxCell id="dMxM86Cvyjp5TYeBCImO-234" value="" style="shape=partialRectangle;connectable=0;fillColor=none;top=0;left=0;bottom=0;right=0;editable=1;overflow=hidden;whiteSpace=wrap;html=1;" vertex="1" parent="dMxM86Cvyjp5TYeBCImO-233">
          <mxGeometry width="30" height="50" as="geometry">
            <mxRectangle width="30" height="50" as="alternateBounds" />
          </mxGeometry>
        </mxCell>
        <mxCell id="dMxM86Cvyjp5TYeBCImO-235" value="&lt;table style=&quot;border-collapse:&lt;br/&gt; collapse;width:129pt&quot; width=&quot;172&quot; cellspacing=&quot;0&quot; cellpadding=&quot;0&quot; border=&quot;0&quot;&gt;&lt;tbody&gt;&lt;tr style=&quot;height:13.8pt&quot; height=&quot;18&quot;&gt;&lt;td style=&quot;height:13.8pt;width:129pt&quot; width=&quot;172&quot; class=&quot;xl66&quot; height=&quot;18&quot;&gt;&lt;/td&gt;&lt;/tr&gt;&lt;/tbody&gt;&lt;/table&gt;&lt;table style=&quot;border-collapse:&lt;br/&gt; collapse;width:129pt&quot; width=&quot;172&quot; cellspacing=&quot;0&quot; cellpadding=&quot;0&quot; border=&quot;0&quot;&gt;&lt;tbody&gt;&lt;tr style=&quot;height:13.8pt&quot; height=&quot;18&quot;&gt;&lt;br/&gt;  &lt;td style=&quot;height:13.8pt;width:129pt&quot; width=&quot;172&quot; class=&quot;xl66&quot; height=&quot;18&quot;&gt;DOSAGE&lt;/td&gt;&lt;/tr&gt;&lt;/tbody&gt;&lt;/table&gt;" style="shape=partialRectangle;connectable=0;fillColor=none;top=0;left=0;bottom=0;right=0;align=left;spacingLeft=6;overflow=hidden;whiteSpace=wrap;html=1;" vertex="1" parent="dMxM86Cvyjp5TYeBCImO-233">
          <mxGeometry x="30" width="150" height="50" as="geometry">
            <mxRectangle width="150" height="50" as="alternateBounds" />
          </mxGeometry>
        </mxCell>
        <mxCell id="dMxM86Cvyjp5TYeBCImO-236" value="" style="shape=tableRow;horizontal=0;startSize=0;swimlaneHead=0;swimlaneBody=0;fillColor=none;collapsible=0;dropTarget=0;points=[[0,0.5],[1,0.5]];portConstraint=eastwest;top=0;left=0;right=0;bottom=0;" vertex="1" parent="dMxM86Cvyjp5TYeBCImO-223">
          <mxGeometry y="190" width="180" height="40" as="geometry" />
        </mxCell>
        <mxCell id="dMxM86Cvyjp5TYeBCImO-237" value="&#xa;&#xa;&lt;table style=&quot;border-collapse:&#xa; collapse;width:129pt&quot; width=&quot;172&quot; cellspacing=&quot;0&quot; cellpadding=&quot;0&quot; border=&quot;0&quot;&gt;&#xa; &lt;colgroup&gt;&lt;col style=&quot;mso-width-source:userset;mso-width-alt:6115;width:129pt&quot; width=&quot;172&quot;&gt;&#xa; &lt;/colgroup&gt;&lt;tbody&gt;&lt;tr style=&quot;height:27.6pt&quot; height=&quot;37&quot;&gt;&#xa;&#xa;  &lt;td style=&quot;height:27.6pt;width:129pt&quot; width=&quot;172&quot; class=&quot;xl66&quot; height=&quot;37&quot;&gt;PRESCRIPTION_DATE&lt;/td&gt;&#xa;&#xa; &lt;/tr&gt;&#xa;&lt;/tbody&gt;&lt;/table&gt;&#xa;&#xa;&#xa;&#xa;&#xa;" style="shape=partialRectangle;connectable=0;fillColor=none;top=0;left=0;bottom=0;right=0;editable=1;overflow=hidden;whiteSpace=wrap;html=1;" vertex="1" parent="dMxM86Cvyjp5TYeBCImO-236">
          <mxGeometry width="30" height="40" as="geometry">
            <mxRectangle width="30" height="40" as="alternateBounds" />
          </mxGeometry>
        </mxCell>
        <mxCell id="dMxM86Cvyjp5TYeBCImO-238" value="PATIENT_GENDER" style="shape=partialRectangle;connectable=0;fillColor=none;top=0;left=0;bottom=0;right=0;align=left;spacingLeft=6;overflow=hidden;whiteSpace=wrap;html=1;" vertex="1" parent="dMxM86Cvyjp5TYeBCImO-236">
          <mxGeometry x="30" width="150" height="40" as="geometry">
            <mxRectangle width="150" height="40" as="alternateBounds" />
          </mxGeometry>
        </mxCell>
        <mxCell id="dMxM86Cvyjp5TYeBCImO-243" value="&lt;table style=&quot;border-collapse:&lt;br/&gt; collapse;width:112pt&quot; width=&quot;150&quot; cellspacing=&quot;0&quot; cellpadding=&quot;0&quot; border=&quot;0&quot;&gt;&lt;tbody&gt;&lt;tr style=&quot;height:13.8pt&quot; height=&quot;18&quot;&gt;&lt;br/&gt;  &lt;td style=&quot;height:13.8pt;width:112pt&quot; width=&quot;150&quot; class=&quot;xl66&quot; height=&quot;18&quot;&gt;APPOINTMENTS&lt;/td&gt;&lt;/tr&gt;&lt;/tbody&gt;&lt;/table&gt;" style="shape=table;startSize=30;container=1;collapsible=1;childLayout=tableLayout;fixedRows=1;rowLines=0;fontStyle=1;align=center;resizeLast=1;html=1;" vertex="1" parent="1">
          <mxGeometry x="270" y="430" width="180" height="240" as="geometry" />
        </mxCell>
        <mxCell id="dMxM86Cvyjp5TYeBCImO-244" value="" style="shape=tableRow;horizontal=0;startSize=0;swimlaneHead=0;swimlaneBody=0;fillColor=none;collapsible=0;dropTarget=0;points=[[0,0.5],[1,0.5]];portConstraint=eastwest;top=0;left=0;right=0;bottom=1;" vertex="1" parent="dMxM86Cvyjp5TYeBCImO-243">
          <mxGeometry y="30" width="180" height="40" as="geometry" />
        </mxCell>
        <mxCell id="dMxM86Cvyjp5TYeBCImO-245" value="PK" style="shape=partialRectangle;connectable=0;fillColor=none;top=0;left=0;bottom=0;right=0;fontStyle=1;overflow=hidden;whiteSpace=wrap;html=1;" vertex="1" parent="dMxM86Cvyjp5TYeBCImO-244">
          <mxGeometry width="30" height="40" as="geometry">
            <mxRectangle width="30" height="40" as="alternateBounds" />
          </mxGeometry>
        </mxCell>
        <mxCell id="dMxM86Cvyjp5TYeBCImO-246" value="APPOINTMENT_ID" style="shape=partialRectangle;connectable=0;fillColor=none;top=0;left=0;bottom=0;right=0;align=left;spacingLeft=6;fontStyle=5;overflow=hidden;whiteSpace=wrap;html=1;" vertex="1" parent="dMxM86Cvyjp5TYeBCImO-244">
          <mxGeometry x="30" width="150" height="40" as="geometry">
            <mxRectangle width="150" height="40" as="alternateBounds" />
          </mxGeometry>
        </mxCell>
        <mxCell id="dMxM86Cvyjp5TYeBCImO-247" value="" style="shape=tableRow;horizontal=0;startSize=0;swimlaneHead=0;swimlaneBody=0;fillColor=none;collapsible=0;dropTarget=0;points=[[0,0.5],[1,0.5]];portConstraint=eastwest;top=0;left=0;right=0;bottom=0;" vertex="1" parent="dMxM86Cvyjp5TYeBCImO-243">
          <mxGeometry y="70" width="180" height="30" as="geometry" />
        </mxCell>
        <mxCell id="dMxM86Cvyjp5TYeBCImO-248" value="FK" style="shape=partialRectangle;connectable=0;fillColor=none;top=0;left=0;bottom=0;right=0;fontStyle=0;overflow=hidden;whiteSpace=wrap;html=1;" vertex="1" parent="dMxM86Cvyjp5TYeBCImO-247">
          <mxGeometry width="30" height="30" as="geometry">
            <mxRectangle width="30" height="30" as="alternateBounds" />
          </mxGeometry>
        </mxCell>
        <mxCell id="dMxM86Cvyjp5TYeBCImO-249" value="PATIENT_ID" style="shape=partialRectangle;connectable=0;fillColor=none;top=0;left=0;bottom=0;right=0;align=left;spacingLeft=6;fontStyle=0;overflow=hidden;whiteSpace=wrap;html=1;" vertex="1" parent="dMxM86Cvyjp5TYeBCImO-247">
          <mxGeometry x="30" width="150" height="30" as="geometry">
            <mxRectangle width="150" height="30" as="alternateBounds" />
          </mxGeometry>
        </mxCell>
        <mxCell id="dMxM86Cvyjp5TYeBCImO-250" value="" style="shape=tableRow;horizontal=0;startSize=0;swimlaneHead=0;swimlaneBody=0;fillColor=none;collapsible=0;dropTarget=0;points=[[0,0.5],[1,0.5]];portConstraint=eastwest;top=0;left=0;right=0;bottom=0;" vertex="1" parent="dMxM86Cvyjp5TYeBCImO-243">
          <mxGeometry y="100" width="180" height="40" as="geometry" />
        </mxCell>
        <mxCell id="dMxM86Cvyjp5TYeBCImO-251" value="" style="shape=partialRectangle;connectable=0;fillColor=none;top=0;left=0;bottom=0;right=0;editable=1;overflow=hidden;whiteSpace=wrap;html=1;" vertex="1" parent="dMxM86Cvyjp5TYeBCImO-250">
          <mxGeometry width="30" height="40" as="geometry">
            <mxRectangle width="30" height="40" as="alternateBounds" />
          </mxGeometry>
        </mxCell>
        <mxCell id="dMxM86Cvyjp5TYeBCImO-252" value="&lt;table style=&quot;border-collapse:&lt;br/&gt; collapse;width:129pt&quot; width=&quot;172&quot; cellspacing=&quot;0&quot; cellpadding=&quot;0&quot; border=&quot;0&quot;&gt;&lt;tbody&gt;&lt;tr style=&quot;height:13.8pt&quot; height=&quot;18&quot;&gt;&lt;td style=&quot;height:13.8pt;width:129pt&quot; width=&quot;172&quot; class=&quot;xl66&quot; height=&quot;18&quot;&gt;&lt;/td&gt;&lt;/tr&gt;&lt;/tbody&gt;&lt;/table&gt;STAFF&lt;br&gt;&lt;table style=&quot;border-collapse:&lt;br/&gt; collapse;width:129pt&quot; width=&quot;172&quot; cellspacing=&quot;0&quot; cellpadding=&quot;0&quot; border=&quot;0&quot;&gt;&lt;tbody&gt;&lt;tr style=&quot;height:13.8pt&quot; height=&quot;18&quot;&gt;  &lt;td style=&quot;height:13.8pt;width:129pt&quot; width=&quot;172&quot; class=&quot;xl66&quot; height=&quot;18&quot;&gt;&lt;br&gt;&lt;/td&gt;&lt;/tr&gt;&lt;/tbody&gt;&lt;/table&gt;" style="shape=partialRectangle;connectable=0;fillColor=none;top=0;left=0;bottom=0;right=0;align=left;spacingLeft=6;overflow=hidden;whiteSpace=wrap;html=1;" vertex="1" parent="dMxM86Cvyjp5TYeBCImO-250">
          <mxGeometry x="30" width="150" height="40" as="geometry">
            <mxRectangle width="150" height="40" as="alternateBounds" />
          </mxGeometry>
        </mxCell>
        <mxCell id="dMxM86Cvyjp5TYeBCImO-253" value="" style="shape=tableRow;horizontal=0;startSize=0;swimlaneHead=0;swimlaneBody=0;fillColor=none;collapsible=0;dropTarget=0;points=[[0,0.5],[1,0.5]];portConstraint=eastwest;top=0;left=0;right=0;bottom=0;" vertex="1" parent="dMxM86Cvyjp5TYeBCImO-243">
          <mxGeometry y="140" width="180" height="50" as="geometry" />
        </mxCell>
        <mxCell id="dMxM86Cvyjp5TYeBCImO-254" value="" style="shape=partialRectangle;connectable=0;fillColor=none;top=0;left=0;bottom=0;right=0;editable=1;overflow=hidden;whiteSpace=wrap;html=1;" vertex="1" parent="dMxM86Cvyjp5TYeBCImO-253">
          <mxGeometry width="30" height="50" as="geometry">
            <mxRectangle width="30" height="50" as="alternateBounds" />
          </mxGeometry>
        </mxCell>
        <mxCell id="dMxM86Cvyjp5TYeBCImO-255" value="&lt;br&gt;&lt;table style=&quot;border-collapse:&lt;br/&gt; collapse;width:129pt&quot; width=&quot;172&quot; cellspacing=&quot;0&quot; cellpadding=&quot;0&quot; border=&quot;0&quot;&gt;&lt;tbody&gt;&lt;tr style=&quot;height:13.8pt&quot; height=&quot;18&quot;&gt;  &lt;td style=&quot;height:13.8pt;width:129pt&quot; width=&quot;172&quot; class=&quot;xl66&quot; height=&quot;18&quot;&gt;DATE&lt;/td&gt;&lt;/tr&gt;&lt;/tbody&gt;&lt;/table&gt;" style="shape=partialRectangle;connectable=0;fillColor=none;top=0;left=0;bottom=0;right=0;align=left;spacingLeft=6;overflow=hidden;whiteSpace=wrap;html=1;" vertex="1" parent="dMxM86Cvyjp5TYeBCImO-253">
          <mxGeometry x="30" width="150" height="50" as="geometry">
            <mxRectangle width="150" height="50" as="alternateBounds" />
          </mxGeometry>
        </mxCell>
        <mxCell id="dMxM86Cvyjp5TYeBCImO-256" value="" style="shape=tableRow;horizontal=0;startSize=0;swimlaneHead=0;swimlaneBody=0;fillColor=none;collapsible=0;dropTarget=0;points=[[0,0.5],[1,0.5]];portConstraint=eastwest;top=0;left=0;right=0;bottom=0;" vertex="1" parent="dMxM86Cvyjp5TYeBCImO-243">
          <mxGeometry y="190" width="180" height="50" as="geometry" />
        </mxCell>
        <mxCell id="dMxM86Cvyjp5TYeBCImO-257" value="" style="shape=partialRectangle;connectable=0;fillColor=none;top=0;left=0;bottom=0;right=0;editable=1;overflow=hidden;whiteSpace=wrap;html=1;" vertex="1" parent="dMxM86Cvyjp5TYeBCImO-256">
          <mxGeometry width="30" height="50" as="geometry">
            <mxRectangle width="30" height="50" as="alternateBounds" />
          </mxGeometry>
        </mxCell>
        <mxCell id="dMxM86Cvyjp5TYeBCImO-258" value="&lt;table style=&quot;border-collapse:&lt;br/&gt; collapse;width:129pt&quot; width=&quot;172&quot; cellspacing=&quot;0&quot; cellpadding=&quot;0&quot; border=&quot;0&quot;&gt;&lt;tbody&gt;&lt;tr style=&quot;height:13.8pt&quot; height=&quot;18&quot;&gt;&lt;br/&gt;  &lt;td style=&quot;height:13.8pt;width:129pt&quot; width=&quot;172&quot; class=&quot;xl66&quot; height=&quot;18&quot;&gt;PURPOSE&lt;/td&gt;&lt;/tr&gt;&lt;/tbody&gt;&lt;/table&gt;" style="shape=partialRectangle;connectable=0;fillColor=none;top=0;left=0;bottom=0;right=0;align=left;spacingLeft=6;overflow=hidden;whiteSpace=wrap;html=1;" vertex="1" parent="dMxM86Cvyjp5TYeBCImO-256">
          <mxGeometry x="30" width="150" height="50" as="geometry">
            <mxRectangle width="150" height="50" as="alternateBounds" />
          </mxGeometry>
        </mxCell>
        <mxCell id="dMxM86Cvyjp5TYeBCImO-262" value="&lt;table style=&quot;border-collapse:&lt;br/&gt; collapse;width:112pt&quot; width=&quot;150&quot; cellspacing=&quot;0&quot; cellpadding=&quot;0&quot; border=&quot;0&quot;&gt;&lt;tbody&gt;&lt;tr style=&quot;height:13.8pt&quot; height=&quot;18&quot;&gt;&lt;td style=&quot;height:13.8pt;width:112pt&quot; width=&quot;150&quot; class=&quot;xl66&quot; height=&quot;18&quot;&gt;&lt;/td&gt;&lt;/tr&gt;&lt;/tbody&gt;&lt;/table&gt;STAFF" style="shape=table;startSize=30;container=1;collapsible=1;childLayout=tableLayout;fixedRows=1;rowLines=0;fontStyle=1;align=center;resizeLast=1;html=1;" vertex="1" parent="1">
          <mxGeometry x="520" y="460" width="180" height="300" as="geometry" />
        </mxCell>
        <mxCell id="dMxM86Cvyjp5TYeBCImO-263" value="" style="shape=tableRow;horizontal=0;startSize=0;swimlaneHead=0;swimlaneBody=0;fillColor=none;collapsible=0;dropTarget=0;points=[[0,0.5],[1,0.5]];portConstraint=eastwest;top=0;left=0;right=0;bottom=1;" vertex="1" parent="dMxM86Cvyjp5TYeBCImO-262">
          <mxGeometry y="30" width="180" height="40" as="geometry" />
        </mxCell>
        <mxCell id="dMxM86Cvyjp5TYeBCImO-264" value="PK" style="shape=partialRectangle;connectable=0;fillColor=none;top=0;left=0;bottom=0;right=0;fontStyle=1;overflow=hidden;whiteSpace=wrap;html=1;" vertex="1" parent="dMxM86Cvyjp5TYeBCImO-263">
          <mxGeometry width="30" height="40" as="geometry">
            <mxRectangle width="30" height="40" as="alternateBounds" />
          </mxGeometry>
        </mxCell>
        <mxCell id="dMxM86Cvyjp5TYeBCImO-265" value="STAFF_ID" style="shape=partialRectangle;connectable=0;fillColor=none;top=0;left=0;bottom=0;right=0;align=left;spacingLeft=6;fontStyle=5;overflow=hidden;whiteSpace=wrap;html=1;" vertex="1" parent="dMxM86Cvyjp5TYeBCImO-263">
          <mxGeometry x="30" width="150" height="40" as="geometry">
            <mxRectangle width="150" height="40" as="alternateBounds" />
          </mxGeometry>
        </mxCell>
        <mxCell id="dMxM86Cvyjp5TYeBCImO-269" value="" style="shape=tableRow;horizontal=0;startSize=0;swimlaneHead=0;swimlaneBody=0;fillColor=none;collapsible=0;dropTarget=0;points=[[0,0.5],[1,0.5]];portConstraint=eastwest;top=0;left=0;right=0;bottom=0;" vertex="1" parent="dMxM86Cvyjp5TYeBCImO-262">
          <mxGeometry y="70" width="180" height="40" as="geometry" />
        </mxCell>
        <mxCell id="dMxM86Cvyjp5TYeBCImO-270" value="" style="shape=partialRectangle;connectable=0;fillColor=none;top=0;left=0;bottom=0;right=0;editable=1;overflow=hidden;whiteSpace=wrap;html=1;" vertex="1" parent="dMxM86Cvyjp5TYeBCImO-269">
          <mxGeometry width="30" height="40" as="geometry">
            <mxRectangle width="30" height="40" as="alternateBounds" />
          </mxGeometry>
        </mxCell>
        <mxCell id="dMxM86Cvyjp5TYeBCImO-271" value="&lt;table style=&quot;border-collapse:&lt;br/&gt; collapse;width:129pt&quot; width=&quot;172&quot; cellspacing=&quot;0&quot; cellpadding=&quot;0&quot; border=&quot;0&quot;&gt;&lt;tbody&gt;&lt;tr style=&quot;height:13.8pt&quot; height=&quot;18&quot;&gt;&lt;td style=&quot;height:13.8pt;width:129pt&quot; width=&quot;172&quot; class=&quot;xl66&quot; height=&quot;18&quot;&gt;&lt;/td&gt;&lt;/tr&gt;&lt;/tbody&gt;&lt;/table&gt;STAFF_FNAME&lt;br&gt;&lt;table style=&quot;border-collapse:&lt;br/&gt; collapse;width:129pt&quot; width=&quot;172&quot; cellspacing=&quot;0&quot; cellpadding=&quot;0&quot; border=&quot;0&quot;&gt;&lt;tbody&gt;&lt;tr style=&quot;height:13.8pt&quot; height=&quot;18&quot;&gt;  &lt;td style=&quot;height:13.8pt;width:129pt&quot; width=&quot;172&quot; class=&quot;xl66&quot; height=&quot;18&quot;&gt;&lt;br&gt;&lt;/td&gt;&lt;/tr&gt;&lt;/tbody&gt;&lt;/table&gt;" style="shape=partialRectangle;connectable=0;fillColor=none;top=0;left=0;bottom=0;right=0;align=left;spacingLeft=6;overflow=hidden;whiteSpace=wrap;html=1;" vertex="1" parent="dMxM86Cvyjp5TYeBCImO-269">
          <mxGeometry x="30" width="150" height="40" as="geometry">
            <mxRectangle width="150" height="40" as="alternateBounds" />
          </mxGeometry>
        </mxCell>
        <mxCell id="dMxM86Cvyjp5TYeBCImO-272" value="" style="shape=tableRow;horizontal=0;startSize=0;swimlaneHead=0;swimlaneBody=0;fillColor=none;collapsible=0;dropTarget=0;points=[[0,0.5],[1,0.5]];portConstraint=eastwest;top=0;left=0;right=0;bottom=0;" vertex="1" parent="dMxM86Cvyjp5TYeBCImO-262">
          <mxGeometry y="110" width="180" height="50" as="geometry" />
        </mxCell>
        <mxCell id="dMxM86Cvyjp5TYeBCImO-273" value="" style="shape=partialRectangle;connectable=0;fillColor=none;top=0;left=0;bottom=0;right=0;editable=1;overflow=hidden;whiteSpace=wrap;html=1;" vertex="1" parent="dMxM86Cvyjp5TYeBCImO-272">
          <mxGeometry width="30" height="50" as="geometry">
            <mxRectangle width="30" height="50" as="alternateBounds" />
          </mxGeometry>
        </mxCell>
        <mxCell id="dMxM86Cvyjp5TYeBCImO-274" value="&lt;table style=&quot;border-collapse:&lt;br/&gt; collapse;width:129pt&quot; width=&quot;172&quot; cellspacing=&quot;0&quot; cellpadding=&quot;0&quot; border=&quot;0&quot;&gt;&lt;tbody&gt;&lt;tr style=&quot;height:13.8pt&quot; height=&quot;18&quot;&gt;&lt;td style=&quot;height:13.8pt;width:129pt&quot; width=&quot;172&quot; class=&quot;xl66&quot; height=&quot;18&quot;&gt;&lt;/td&gt;&lt;/tr&gt;&lt;/tbody&gt;&lt;/table&gt;STAFF_LNAME" style="shape=partialRectangle;connectable=0;fillColor=none;top=0;left=0;bottom=0;right=0;align=left;spacingLeft=6;overflow=hidden;whiteSpace=wrap;html=1;" vertex="1" parent="dMxM86Cvyjp5TYeBCImO-272">
          <mxGeometry x="30" width="150" height="50" as="geometry">
            <mxRectangle width="150" height="50" as="alternateBounds" />
          </mxGeometry>
        </mxCell>
        <mxCell id="dMxM86Cvyjp5TYeBCImO-275" value="" style="shape=tableRow;horizontal=0;startSize=0;swimlaneHead=0;swimlaneBody=0;fillColor=none;collapsible=0;dropTarget=0;points=[[0,0.5],[1,0.5]];portConstraint=eastwest;top=0;left=0;right=0;bottom=0;" vertex="1" parent="dMxM86Cvyjp5TYeBCImO-262">
          <mxGeometry y="160" width="180" height="50" as="geometry" />
        </mxCell>
        <mxCell id="dMxM86Cvyjp5TYeBCImO-276" value="" style="shape=partialRectangle;connectable=0;fillColor=none;top=0;left=0;bottom=0;right=0;editable=1;overflow=hidden;whiteSpace=wrap;html=1;" vertex="1" parent="dMxM86Cvyjp5TYeBCImO-275">
          <mxGeometry width="30" height="50" as="geometry">
            <mxRectangle width="30" height="50" as="alternateBounds" />
          </mxGeometry>
        </mxCell>
        <mxCell id="dMxM86Cvyjp5TYeBCImO-277" value="&lt;table style=&quot;border-collapse:&lt;br/&gt; collapse;width:129pt&quot; width=&quot;172&quot; cellspacing=&quot;0&quot; cellpadding=&quot;0&quot; border=&quot;0&quot;&gt;&lt;tbody&gt;&lt;tr style=&quot;height:13.8pt&quot; height=&quot;18&quot;&gt;&lt;td style=&quot;height:13.8pt;width:129pt&quot; width=&quot;172&quot; class=&quot;xl66&quot; height=&quot;18&quot;&gt;&lt;/td&gt;&lt;/tr&gt;&lt;/tbody&gt;&lt;/table&gt;&lt;table style=&quot;border-collapse:&lt;br/&gt; collapse;width:129pt&quot; width=&quot;172&quot; cellspacing=&quot;0&quot; cellpadding=&quot;0&quot; border=&quot;0&quot;&gt;&lt;tbody&gt;&lt;tr style=&quot;height:13.8pt&quot; height=&quot;18&quot;&gt;&lt;br/&gt;  &lt;td style=&quot;height:13.8pt;width:129pt&quot; width=&quot;172&quot; class=&quot;xl66&quot; height=&quot;18&quot;&gt;STAFF_POSITION&lt;/td&gt;&lt;/tr&gt;&lt;/tbody&gt;&lt;/table&gt;" style="shape=partialRectangle;connectable=0;fillColor=none;top=0;left=0;bottom=0;right=0;align=left;spacingLeft=6;overflow=hidden;whiteSpace=wrap;html=1;" vertex="1" parent="dMxM86Cvyjp5TYeBCImO-275">
          <mxGeometry x="30" width="150" height="50" as="geometry">
            <mxRectangle width="150" height="50" as="alternateBounds" />
          </mxGeometry>
        </mxCell>
        <mxCell id="dMxM86Cvyjp5TYeBCImO-281" style="shape=tableRow;horizontal=0;startSize=0;swimlaneHead=0;swimlaneBody=0;fillColor=none;collapsible=0;dropTarget=0;points=[[0,0.5],[1,0.5]];portConstraint=eastwest;top=0;left=0;right=0;bottom=0;" vertex="1" parent="dMxM86Cvyjp5TYeBCImO-262">
          <mxGeometry y="210" width="180" height="90" as="geometry" />
        </mxCell>
        <mxCell id="dMxM86Cvyjp5TYeBCImO-282" style="shape=partialRectangle;connectable=0;fillColor=none;top=0;left=0;bottom=0;right=0;editable=1;overflow=hidden;whiteSpace=wrap;html=1;" vertex="1" parent="dMxM86Cvyjp5TYeBCImO-281">
          <mxGeometry width="30" height="90" as="geometry">
            <mxRectangle width="30" height="90" as="alternateBounds" />
          </mxGeometry>
        </mxCell>
        <mxCell id="dMxM86Cvyjp5TYeBCImO-283" value="&lt;table style=&quot;border-collapse:&lt;br/&gt; collapse;width:129pt&quot; width=&quot;172&quot; cellspacing=&quot;0&quot; cellpadding=&quot;0&quot; border=&quot;0&quot;&gt;&lt;tbody&gt;&lt;tr style=&quot;height:27.6pt&quot; height=&quot;37&quot;&gt;&lt;br/&gt;  &lt;td style=&quot;height:27.6pt;width:129pt&quot; width=&quot;172&quot; class=&quot;xl67&quot; height=&quot;37&quot;&gt;STAFF_CONTACT&lt;br&gt;&lt;br/&gt;    _NUMBER&lt;/td&gt;&lt;/tr&gt;&lt;/tbody&gt;&lt;/table&gt;" style="shape=partialRectangle;connectable=0;fillColor=none;top=0;left=0;bottom=0;right=0;align=left;spacingLeft=6;overflow=hidden;whiteSpace=wrap;html=1;" vertex="1" parent="dMxM86Cvyjp5TYeBCImO-281">
          <mxGeometry x="30" width="150" height="90" as="geometry">
            <mxRectangle width="150" height="90" as="alternateBounds" />
          </mxGeometry>
        </mxCell>
        <mxCell id="dMxM86Cvyjp5TYeBCImO-300" value="&lt;table style=&quot;border-collapse:&lt;br/&gt; collapse;width:112pt&quot; width=&quot;150&quot; cellspacing=&quot;0&quot; cellpadding=&quot;0&quot; border=&quot;0&quot;&gt;&lt;tbody&gt;&lt;tr style=&quot;height:13.8pt&quot; height=&quot;18&quot;&gt;&lt;td style=&quot;height:13.8pt;width:112pt&quot; width=&quot;150&quot; class=&quot;xl66&quot; height=&quot;18&quot;&gt;&lt;/td&gt;&lt;/tr&gt;&lt;/tbody&gt;&lt;/table&gt;BILLING" style="shape=table;startSize=30;container=1;collapsible=1;childLayout=tableLayout;fixedRows=1;rowLines=0;fontStyle=1;align=center;resizeLast=1;html=1;" vertex="1" parent="1">
          <mxGeometry x="10" y="650" width="180" height="230" as="geometry" />
        </mxCell>
        <mxCell id="dMxM86Cvyjp5TYeBCImO-301" value="" style="shape=tableRow;horizontal=0;startSize=0;swimlaneHead=0;swimlaneBody=0;fillColor=none;collapsible=0;dropTarget=0;points=[[0,0.5],[1,0.5]];portConstraint=eastwest;top=0;left=0;right=0;bottom=1;" vertex="1" parent="dMxM86Cvyjp5TYeBCImO-300">
          <mxGeometry y="30" width="180" height="40" as="geometry" />
        </mxCell>
        <mxCell id="dMxM86Cvyjp5TYeBCImO-302" value="PK" style="shape=partialRectangle;connectable=0;fillColor=none;top=0;left=0;bottom=0;right=0;fontStyle=1;overflow=hidden;whiteSpace=wrap;html=1;" vertex="1" parent="dMxM86Cvyjp5TYeBCImO-301">
          <mxGeometry width="30" height="40" as="geometry">
            <mxRectangle width="30" height="40" as="alternateBounds" />
          </mxGeometry>
        </mxCell>
        <mxCell id="dMxM86Cvyjp5TYeBCImO-303" value="&lt;br&gt;&lt;table style=&quot;border-collapse:&lt;br/&gt; collapse;width:112pt&quot; width=&quot;150&quot; cellspacing=&quot;0&quot; cellpadding=&quot;0&quot; border=&quot;0&quot;&gt;&lt;tbody&gt;&lt;tr style=&quot;height:13.8pt&quot; height=&quot;18&quot;&gt;  &lt;td style=&quot;height:13.8pt;width:112pt&quot; width=&quot;150&quot; class=&quot;xl66&quot; height=&quot;18&quot;&gt;BILLING_ID&lt;/td&gt;&lt;/tr&gt;&lt;/tbody&gt;&lt;/table&gt;&lt;table style=&quot;border-collapse:&lt;br/&gt; collapse;width:112pt&quot; width=&quot;150&quot; cellspacing=&quot;0&quot; cellpadding=&quot;0&quot; border=&quot;0&quot;&gt;&lt;tbody&gt;&lt;tr style=&quot;height:13.8pt&quot; height=&quot;18&quot;&gt;&lt;td style=&quot;height:13.8pt;width:112pt&quot; width=&quot;150&quot; class=&quot;xl66&quot; height=&quot;18&quot;&gt;&lt;/td&gt;&lt;/tr&gt;&lt;/tbody&gt;&lt;/table&gt;" style="shape=partialRectangle;connectable=0;fillColor=none;top=0;left=0;bottom=0;right=0;align=left;spacingLeft=6;fontStyle=5;overflow=hidden;whiteSpace=wrap;html=1;" vertex="1" parent="dMxM86Cvyjp5TYeBCImO-301">
          <mxGeometry x="30" width="150" height="40" as="geometry">
            <mxRectangle width="150" height="40" as="alternateBounds" />
          </mxGeometry>
        </mxCell>
        <mxCell id="dMxM86Cvyjp5TYeBCImO-304" value="" style="shape=tableRow;horizontal=0;startSize=0;swimlaneHead=0;swimlaneBody=0;fillColor=none;collapsible=0;dropTarget=0;points=[[0,0.5],[1,0.5]];portConstraint=eastwest;top=0;left=0;right=0;bottom=0;" vertex="1" parent="dMxM86Cvyjp5TYeBCImO-300">
          <mxGeometry y="70" width="180" height="30" as="geometry" />
        </mxCell>
        <mxCell id="dMxM86Cvyjp5TYeBCImO-305" value="FK" style="shape=partialRectangle;connectable=0;fillColor=none;top=0;left=0;bottom=0;right=0;fontStyle=0;overflow=hidden;whiteSpace=wrap;html=1;" vertex="1" parent="dMxM86Cvyjp5TYeBCImO-304">
          <mxGeometry width="30" height="30" as="geometry">
            <mxRectangle width="30" height="30" as="alternateBounds" />
          </mxGeometry>
        </mxCell>
        <mxCell id="dMxM86Cvyjp5TYeBCImO-306" value="PATIENT_ID" style="shape=partialRectangle;connectable=0;fillColor=none;top=0;left=0;bottom=0;right=0;align=left;spacingLeft=6;fontStyle=0;overflow=hidden;whiteSpace=wrap;html=1;" vertex="1" parent="dMxM86Cvyjp5TYeBCImO-304">
          <mxGeometry x="30" width="150" height="30" as="geometry">
            <mxRectangle width="150" height="30" as="alternateBounds" />
          </mxGeometry>
        </mxCell>
        <mxCell id="dMxM86Cvyjp5TYeBCImO-307" value="" style="shape=tableRow;horizontal=0;startSize=0;swimlaneHead=0;swimlaneBody=0;fillColor=none;collapsible=0;dropTarget=0;points=[[0,0.5],[1,0.5]];portConstraint=eastwest;top=0;left=0;right=0;bottom=0;" vertex="1" parent="dMxM86Cvyjp5TYeBCImO-300">
          <mxGeometry y="100" width="180" height="40" as="geometry" />
        </mxCell>
        <mxCell id="dMxM86Cvyjp5TYeBCImO-308" value="" style="shape=partialRectangle;connectable=0;fillColor=none;top=0;left=0;bottom=0;right=0;editable=1;overflow=hidden;whiteSpace=wrap;html=1;" vertex="1" parent="dMxM86Cvyjp5TYeBCImO-307">
          <mxGeometry width="30" height="40" as="geometry">
            <mxRectangle width="30" height="40" as="alternateBounds" />
          </mxGeometry>
        </mxCell>
        <mxCell id="dMxM86Cvyjp5TYeBCImO-309" value="&lt;table style=&quot;border-collapse:&lt;br/&gt; collapse;width:129pt&quot; width=&quot;172&quot; cellspacing=&quot;0&quot; cellpadding=&quot;0&quot; border=&quot;0&quot;&gt;&lt;tbody&gt;&lt;tr style=&quot;height:13.8pt&quot; height=&quot;18&quot;&gt;&lt;br/&gt;  &lt;td style=&quot;height:13.8pt;width:129pt&quot; width=&quot;172&quot; class=&quot;xl66&quot; height=&quot;18&quot;&gt;DATE_OF_PAYMENT&lt;/td&gt;&lt;/tr&gt;&lt;/tbody&gt;&lt;/table&gt;&lt;table style=&quot;border-collapse:&lt;br/&gt; collapse;width:129pt&quot; width=&quot;172&quot; cellspacing=&quot;0&quot; cellpadding=&quot;0&quot; border=&quot;0&quot;&gt;&lt;tbody&gt;&lt;tr style=&quot;height:13.8pt&quot; height=&quot;18&quot;&gt;&lt;td style=&quot;height:13.8pt;width:129pt&quot; width=&quot;172&quot; class=&quot;xl66&quot; height=&quot;18&quot;&gt;&lt;/td&gt;&lt;/tr&gt;&lt;/tbody&gt;&lt;/table&gt;" style="shape=partialRectangle;connectable=0;fillColor=none;top=0;left=0;bottom=0;right=0;align=left;spacingLeft=6;overflow=hidden;whiteSpace=wrap;html=1;" vertex="1" parent="dMxM86Cvyjp5TYeBCImO-307">
          <mxGeometry x="30" width="150" height="40" as="geometry">
            <mxRectangle width="150" height="40" as="alternateBounds" />
          </mxGeometry>
        </mxCell>
        <mxCell id="dMxM86Cvyjp5TYeBCImO-310" value="" style="shape=tableRow;horizontal=0;startSize=0;swimlaneHead=0;swimlaneBody=0;fillColor=none;collapsible=0;dropTarget=0;points=[[0,0.5],[1,0.5]];portConstraint=eastwest;top=0;left=0;right=0;bottom=0;" vertex="1" parent="dMxM86Cvyjp5TYeBCImO-300">
          <mxGeometry y="140" width="180" height="50" as="geometry" />
        </mxCell>
        <mxCell id="dMxM86Cvyjp5TYeBCImO-311" value="" style="shape=partialRectangle;connectable=0;fillColor=none;top=0;left=0;bottom=0;right=0;editable=1;overflow=hidden;whiteSpace=wrap;html=1;" vertex="1" parent="dMxM86Cvyjp5TYeBCImO-310">
          <mxGeometry width="30" height="50" as="geometry">
            <mxRectangle width="30" height="50" as="alternateBounds" />
          </mxGeometry>
        </mxCell>
        <mxCell id="dMxM86Cvyjp5TYeBCImO-312" value="&lt;table style=&quot;border-collapse:&lt;br/&gt; collapse;width:129pt&quot; width=&quot;172&quot; cellspacing=&quot;0&quot; cellpadding=&quot;0&quot; border=&quot;0&quot;&gt;&lt;tbody&gt;&lt;tr style=&quot;height:13.8pt&quot; height=&quot;18&quot;&gt;&lt;br/&gt;  &lt;td style=&quot;height:13.8pt;width:129pt&quot; width=&quot;172&quot; class=&quot;xl66&quot; height=&quot;18&quot;&gt;AMOUNT&lt;/td&gt;&lt;/tr&gt;&lt;/tbody&gt;&lt;/table&gt;" style="shape=partialRectangle;connectable=0;fillColor=none;top=0;left=0;bottom=0;right=0;align=left;spacingLeft=6;overflow=hidden;whiteSpace=wrap;html=1;" vertex="1" parent="dMxM86Cvyjp5TYeBCImO-310">
          <mxGeometry x="30" width="150" height="50" as="geometry">
            <mxRectangle width="150" height="50" as="alternateBounds" />
          </mxGeometry>
        </mxCell>
        <mxCell id="dMxM86Cvyjp5TYeBCImO-313" value="" style="shape=tableRow;horizontal=0;startSize=0;swimlaneHead=0;swimlaneBody=0;fillColor=none;collapsible=0;dropTarget=0;points=[[0,0.5],[1,0.5]];portConstraint=eastwest;top=0;left=0;right=0;bottom=0;" vertex="1" parent="dMxM86Cvyjp5TYeBCImO-300">
          <mxGeometry y="190" width="180" height="40" as="geometry" />
        </mxCell>
        <mxCell id="dMxM86Cvyjp5TYeBCImO-314" value="&#xa;&#xa;&lt;table style=&quot;border-collapse:&#xa; collapse;width:129pt&quot; width=&quot;172&quot; cellspacing=&quot;0&quot; cellpadding=&quot;0&quot; border=&quot;0&quot;&gt;&#xa; &lt;colgroup&gt;&lt;col style=&quot;mso-width-source:userset;mso-width-alt:6115;width:129pt&quot; width=&quot;172&quot;&gt;&#xa; &lt;/colgroup&gt;&lt;tbody&gt;&lt;tr style=&quot;height:27.6pt&quot; height=&quot;37&quot;&gt;&#xa;&#xa;  &lt;td style=&quot;height:27.6pt;width:129pt&quot; width=&quot;172&quot; class=&quot;xl66&quot; height=&quot;37&quot;&gt;PRESCRIPTION_DATE&lt;/td&gt;&#xa;&#xa; &lt;/tr&gt;&#xa;&lt;/tbody&gt;&lt;/table&gt;&#xa;&#xa;&#xa;&#xa;&#xa;" style="shape=partialRectangle;connectable=0;fillColor=none;top=0;left=0;bottom=0;right=0;editable=1;overflow=hidden;whiteSpace=wrap;html=1;" vertex="1" parent="dMxM86Cvyjp5TYeBCImO-313">
          <mxGeometry width="30" height="40" as="geometry">
            <mxRectangle width="30" height="40" as="alternateBounds" />
          </mxGeometry>
        </mxCell>
        <mxCell id="dMxM86Cvyjp5TYeBCImO-315" value="&lt;table style=&quot;border-collapse:&lt;br/&gt; collapse;width:129pt&quot; width=&quot;172&quot; cellspacing=&quot;0&quot; cellpadding=&quot;0&quot; border=&quot;0&quot;&gt;&lt;tbody&gt;&lt;tr style=&quot;height:13.8pt&quot; height=&quot;18&quot;&gt;&lt;br/&gt;  &lt;td style=&quot;height:13.8pt;width:129pt&quot; width=&quot;172&quot; class=&quot;xl66&quot; height=&quot;18&quot;&gt;PAYMENT_STATUS&lt;/td&gt;&lt;/tr&gt;&lt;/tbody&gt;&lt;/table&gt;" style="shape=partialRectangle;connectable=0;fillColor=none;top=0;left=0;bottom=0;right=0;align=left;spacingLeft=6;overflow=hidden;whiteSpace=wrap;html=1;" vertex="1" parent="dMxM86Cvyjp5TYeBCImO-313">
          <mxGeometry x="30" width="150" height="40" as="geometry">
            <mxRectangle width="150" height="40" as="alternateBounds" />
          </mxGeometry>
        </mxCell>
        <mxCell id="dMxM86Cvyjp5TYeBCImO-348" value="&lt;table style=&quot;border-collapse:&lt;br/&gt; collapse;width:112pt&quot; width=&quot;150&quot; cellspacing=&quot;0&quot; cellpadding=&quot;0&quot; border=&quot;0&quot;&gt;&lt;tbody&gt;&lt;tr style=&quot;height:13.8pt&quot; height=&quot;18&quot;&gt;&lt;td style=&quot;height:13.8pt;width:112pt&quot; width=&quot;150&quot; class=&quot;xl66&quot; height=&quot;18&quot;&gt;&lt;/td&gt;&lt;/tr&gt;&lt;/tbody&gt;&lt;/table&gt;&lt;table style=&quot;border-collapse:&lt;br/&gt; collapse;width:112pt&quot; width=&quot;150&quot; cellspacing=&quot;0&quot; cellpadding=&quot;0&quot; border=&quot;0&quot;&gt;&lt;tbody&gt;&lt;tr style=&quot;height:13.8pt&quot; height=&quot;18&quot;&gt;&lt;br/&gt;  &lt;td style=&quot;height:13.8pt;width:112pt&quot; width=&quot;150&quot; class=&quot;xl66&quot; height=&quot;18&quot;&gt;DIAGNOSIS&lt;/td&gt;&lt;/tr&gt;&lt;/tbody&gt;&lt;/table&gt;" style="shape=table;startSize=50;container=1;collapsible=1;childLayout=tableLayout;fixedRows=1;rowLines=0;fontStyle=1;align=center;resizeLast=1;html=1;" vertex="1" parent="1">
          <mxGeometry x="520" y="790" width="180" height="260" as="geometry" />
        </mxCell>
        <mxCell id="dMxM86Cvyjp5TYeBCImO-349" value="" style="shape=tableRow;horizontal=0;startSize=0;swimlaneHead=0;swimlaneBody=0;fillColor=none;collapsible=0;dropTarget=0;points=[[0,0.5],[1,0.5]];portConstraint=eastwest;top=0;left=0;right=0;bottom=1;" vertex="1" parent="dMxM86Cvyjp5TYeBCImO-348">
          <mxGeometry y="50" width="180" height="40" as="geometry" />
        </mxCell>
        <mxCell id="dMxM86Cvyjp5TYeBCImO-350" value="PK" style="shape=partialRectangle;connectable=0;fillColor=none;top=0;left=0;bottom=0;right=0;fontStyle=1;overflow=hidden;whiteSpace=wrap;html=1;" vertex="1" parent="dMxM86Cvyjp5TYeBCImO-349">
          <mxGeometry width="30" height="40" as="geometry">
            <mxRectangle width="30" height="40" as="alternateBounds" />
          </mxGeometry>
        </mxCell>
        <mxCell id="dMxM86Cvyjp5TYeBCImO-351" value="&lt;table style=&quot;border-collapse:&lt;br/&gt; collapse;width:112pt&quot; width=&quot;150&quot; cellspacing=&quot;0&quot; cellpadding=&quot;0&quot; border=&quot;0&quot;&gt;&lt;tbody&gt;&lt;tr style=&quot;height:13.8pt&quot; height=&quot;18&quot;&gt;&lt;br/&gt;  &lt;td style=&quot;height:13.8pt;width:112pt&quot; width=&quot;150&quot; class=&quot;xl66&quot; height=&quot;18&quot;&gt;DIAGNOSIS_ID&lt;/td&gt;&lt;/tr&gt;&lt;/tbody&gt;&lt;/table&gt;" style="shape=partialRectangle;connectable=0;fillColor=none;top=0;left=0;bottom=0;right=0;align=left;spacingLeft=6;fontStyle=5;overflow=hidden;whiteSpace=wrap;html=1;" vertex="1" parent="dMxM86Cvyjp5TYeBCImO-349">
          <mxGeometry x="30" width="150" height="40" as="geometry">
            <mxRectangle width="150" height="40" as="alternateBounds" />
          </mxGeometry>
        </mxCell>
        <mxCell id="dMxM86Cvyjp5TYeBCImO-352" value="" style="shape=tableRow;horizontal=0;startSize=0;swimlaneHead=0;swimlaneBody=0;fillColor=none;collapsible=0;dropTarget=0;points=[[0,0.5],[1,0.5]];portConstraint=eastwest;top=0;left=0;right=0;bottom=0;" vertex="1" parent="dMxM86Cvyjp5TYeBCImO-348">
          <mxGeometry y="90" width="180" height="30" as="geometry" />
        </mxCell>
        <mxCell id="dMxM86Cvyjp5TYeBCImO-353" value="FK" style="shape=partialRectangle;connectable=0;fillColor=none;top=0;left=0;bottom=0;right=0;fontStyle=0;overflow=hidden;whiteSpace=wrap;html=1;" vertex="1" parent="dMxM86Cvyjp5TYeBCImO-352">
          <mxGeometry width="30" height="30" as="geometry">
            <mxRectangle width="30" height="30" as="alternateBounds" />
          </mxGeometry>
        </mxCell>
        <mxCell id="dMxM86Cvyjp5TYeBCImO-354" value="PATIENT_ID" style="shape=partialRectangle;connectable=0;fillColor=none;top=0;left=0;bottom=0;right=0;align=left;spacingLeft=6;fontStyle=0;overflow=hidden;whiteSpace=wrap;html=1;" vertex="1" parent="dMxM86Cvyjp5TYeBCImO-352">
          <mxGeometry x="30" width="150" height="30" as="geometry">
            <mxRectangle width="150" height="30" as="alternateBounds" />
          </mxGeometry>
        </mxCell>
        <mxCell id="dMxM86Cvyjp5TYeBCImO-355" value="" style="shape=tableRow;horizontal=0;startSize=0;swimlaneHead=0;swimlaneBody=0;fillColor=none;collapsible=0;dropTarget=0;points=[[0,0.5],[1,0.5]];portConstraint=eastwest;top=0;left=0;right=0;bottom=0;" vertex="1" parent="dMxM86Cvyjp5TYeBCImO-348">
          <mxGeometry y="120" width="180" height="40" as="geometry" />
        </mxCell>
        <mxCell id="dMxM86Cvyjp5TYeBCImO-356" value="" style="shape=partialRectangle;connectable=0;fillColor=none;top=0;left=0;bottom=0;right=0;editable=1;overflow=hidden;whiteSpace=wrap;html=1;" vertex="1" parent="dMxM86Cvyjp5TYeBCImO-355">
          <mxGeometry width="30" height="40" as="geometry">
            <mxRectangle width="30" height="40" as="alternateBounds" />
          </mxGeometry>
        </mxCell>
        <mxCell id="dMxM86Cvyjp5TYeBCImO-357" value="&lt;table style=&quot;border-collapse:&lt;br/&gt; collapse;width:129pt&quot; width=&quot;172&quot; cellspacing=&quot;0&quot; cellpadding=&quot;0&quot; border=&quot;0&quot;&gt;&lt;tbody&gt;&lt;tr style=&quot;height:13.8pt&quot; height=&quot;18&quot;&gt;&lt;br/&gt;  &lt;td style=&quot;height:13.8pt;width:129pt&quot; width=&quot;172&quot; class=&quot;xl66&quot; height=&quot;18&quot;&gt;DIAGNOSIS_NAME&lt;/td&gt;&lt;/tr&gt;&lt;/tbody&gt;&lt;/table&gt;&lt;table style=&quot;border-collapse:&lt;br/&gt; collapse;width:129pt&quot; width=&quot;172&quot; cellspacing=&quot;0&quot; cellpadding=&quot;0&quot; border=&quot;0&quot;&gt;&lt;tbody&gt;&lt;tr style=&quot;height:13.8pt&quot; height=&quot;18&quot;&gt;&lt;td style=&quot;height:13.8pt;width:129pt&quot; width=&quot;172&quot; class=&quot;xl66&quot; height=&quot;18&quot;&gt;&lt;/td&gt;&lt;/tr&gt;&lt;/tbody&gt;&lt;/table&gt;" style="shape=partialRectangle;connectable=0;fillColor=none;top=0;left=0;bottom=0;right=0;align=left;spacingLeft=6;overflow=hidden;whiteSpace=wrap;html=1;" vertex="1" parent="dMxM86Cvyjp5TYeBCImO-355">
          <mxGeometry x="30" width="150" height="40" as="geometry">
            <mxRectangle width="150" height="40" as="alternateBounds" />
          </mxGeometry>
        </mxCell>
        <mxCell id="dMxM86Cvyjp5TYeBCImO-358" value="" style="shape=tableRow;horizontal=0;startSize=0;swimlaneHead=0;swimlaneBody=0;fillColor=none;collapsible=0;dropTarget=0;points=[[0,0.5],[1,0.5]];portConstraint=eastwest;top=0;left=0;right=0;bottom=0;" vertex="1" parent="dMxM86Cvyjp5TYeBCImO-348">
          <mxGeometry y="160" width="180" height="50" as="geometry" />
        </mxCell>
        <mxCell id="dMxM86Cvyjp5TYeBCImO-359" value="" style="shape=partialRectangle;connectable=0;fillColor=none;top=0;left=0;bottom=0;right=0;editable=1;overflow=hidden;whiteSpace=wrap;html=1;" vertex="1" parent="dMxM86Cvyjp5TYeBCImO-358">
          <mxGeometry width="30" height="50" as="geometry">
            <mxRectangle width="30" height="50" as="alternateBounds" />
          </mxGeometry>
        </mxCell>
        <mxCell id="dMxM86Cvyjp5TYeBCImO-360" value="&lt;br&gt;&lt;table style=&quot;border-collapse:&lt;br/&gt; collapse;width:129pt&quot; width=&quot;172&quot; cellspacing=&quot;0&quot; cellpadding=&quot;0&quot; border=&quot;0&quot;&gt;&lt;tbody&gt;&lt;tr style=&quot;height:13.8pt&quot; height=&quot;18&quot;&gt;  &lt;td style=&quot;height:13.8pt;width:129pt&quot; width=&quot;172&quot; class=&quot;xl66&quot; height=&quot;18&quot;&gt;&lt;table style=&quot;border-collapse:&lt;br/&gt; collapse;width:129pt&quot; width=&quot;172&quot; cellspacing=&quot;0&quot; cellpadding=&quot;0&quot; border=&quot;0&quot;&gt;&lt;tbody&gt;&lt;tr style=&quot;height:13.8pt&quot; height=&quot;18&quot;&gt;&lt;br/&gt;  &lt;td style=&quot;height:13.8pt;width:129pt&quot; width=&quot;172&quot; class=&quot;xl66&quot; height=&quot;18&quot;&gt;DIAGNOSIS_DATE&lt;/td&gt;&lt;/tr&gt;&lt;/tbody&gt;&lt;/table&gt;&lt;br&gt;&lt;/td&gt;&lt;/tr&gt;&lt;/tbody&gt;&lt;/table&gt;" style="shape=partialRectangle;connectable=0;fillColor=none;top=0;left=0;bottom=0;right=0;align=left;spacingLeft=6;overflow=hidden;whiteSpace=wrap;html=1;" vertex="1" parent="dMxM86Cvyjp5TYeBCImO-358">
          <mxGeometry x="30" width="150" height="50" as="geometry">
            <mxRectangle width="150" height="50" as="alternateBounds" />
          </mxGeometry>
        </mxCell>
        <mxCell id="dMxM86Cvyjp5TYeBCImO-361" value="" style="shape=tableRow;horizontal=0;startSize=0;swimlaneHead=0;swimlaneBody=0;fillColor=none;collapsible=0;dropTarget=0;points=[[0,0.5],[1,0.5]];portConstraint=eastwest;top=0;left=0;right=0;bottom=0;" vertex="1" parent="dMxM86Cvyjp5TYeBCImO-348">
          <mxGeometry y="210" width="180" height="50" as="geometry" />
        </mxCell>
        <mxCell id="dMxM86Cvyjp5TYeBCImO-362" value="" style="shape=partialRectangle;connectable=0;fillColor=none;top=0;left=0;bottom=0;right=0;editable=1;overflow=hidden;whiteSpace=wrap;html=1;" vertex="1" parent="dMxM86Cvyjp5TYeBCImO-361">
          <mxGeometry width="30" height="50" as="geometry">
            <mxRectangle width="30" height="50" as="alternateBounds" />
          </mxGeometry>
        </mxCell>
        <mxCell id="dMxM86Cvyjp5TYeBCImO-363" value="&lt;table style=&quot;border-collapse:&lt;br/&gt; collapse;width:129pt&quot; width=&quot;172&quot; cellspacing=&quot;0&quot; cellpadding=&quot;0&quot; border=&quot;0&quot;&gt;&lt;tbody&gt;&lt;tr style=&quot;height:13.8pt&quot; height=&quot;18&quot;&gt;&lt;td style=&quot;height:13.8pt;width:129pt&quot; width=&quot;172&quot; class=&quot;xl66&quot; height=&quot;18&quot;&gt;&lt;/td&gt;&lt;/tr&gt;&lt;/tbody&gt;&lt;/table&gt;&lt;table style=&quot;border-collapse:&lt;br/&gt; collapse;width:129pt&quot; width=&quot;172&quot; cellspacing=&quot;0&quot; cellpadding=&quot;0&quot; border=&quot;0&quot;&gt;&lt;tbody&gt;&lt;tr style=&quot;height:13.8pt&quot; height=&quot;18&quot;&gt;&lt;br/&gt;  &lt;td style=&quot;height:13.8pt;width:129pt&quot; width=&quot;172&quot; class=&quot;xl66&quot; height=&quot;18&quot;&gt;DIAGNOSIS_PHYSICIAN&lt;/td&gt;&lt;/tr&gt;&lt;/tbody&gt;&lt;/table&gt;" style="shape=partialRectangle;connectable=0;fillColor=none;top=0;left=0;bottom=0;right=0;align=left;spacingLeft=6;overflow=hidden;whiteSpace=wrap;html=1;" vertex="1" parent="dMxM86Cvyjp5TYeBCImO-361">
          <mxGeometry x="30" width="150" height="50" as="geometry">
            <mxRectangle width="150" height="50" as="alternateBounds" />
          </mxGeometry>
        </mxCell>
        <mxCell id="dMxM86Cvyjp5TYeBCImO-364" value="&lt;table style=&quot;border-collapse:&lt;br/&gt; collapse;width:112pt&quot; width=&quot;150&quot; cellspacing=&quot;0&quot; cellpadding=&quot;0&quot; border=&quot;0&quot;&gt;&lt;tbody&gt;&lt;tr style=&quot;height:13.8pt&quot; height=&quot;18&quot;&gt;&lt;br/&gt;  &lt;td style=&quot;height:13.8pt;width:112pt&quot; width=&quot;150&quot; class=&quot;xl66&quot; height=&quot;18&quot;&gt;CLINICAL_NOTES&lt;/td&gt;&lt;/tr&gt;&lt;/tbody&gt;&lt;/table&gt;&lt;table style=&quot;border-collapse:&lt;br/&gt; collapse;width:112pt&quot; width=&quot;150&quot; cellspacing=&quot;0&quot; cellpadding=&quot;0&quot; border=&quot;0&quot;&gt;&lt;tbody&gt;&lt;tr style=&quot;height:13.8pt&quot; height=&quot;18&quot;&gt;&lt;td style=&quot;height:13.8pt;width:112pt&quot; width=&quot;150&quot; class=&quot;xl66&quot; height=&quot;18&quot;&gt;&lt;/td&gt;&lt;/tr&gt;&lt;/tbody&gt;&lt;/table&gt;" style="shape=table;startSize=50;container=1;collapsible=1;childLayout=tableLayout;fixedRows=1;rowLines=0;fontStyle=1;align=center;resizeLast=1;html=1;" vertex="1" parent="1">
          <mxGeometry y="970" width="180" height="360" as="geometry" />
        </mxCell>
        <mxCell id="dMxM86Cvyjp5TYeBCImO-365" value="" style="shape=tableRow;horizontal=0;startSize=0;swimlaneHead=0;swimlaneBody=0;fillColor=none;collapsible=0;dropTarget=0;points=[[0,0.5],[1,0.5]];portConstraint=eastwest;top=0;left=0;right=0;bottom=1;" vertex="1" parent="dMxM86Cvyjp5TYeBCImO-364">
          <mxGeometry y="50" width="180" height="60" as="geometry" />
        </mxCell>
        <mxCell id="dMxM86Cvyjp5TYeBCImO-366" value="PK" style="shape=partialRectangle;connectable=0;fillColor=none;top=0;left=0;bottom=0;right=0;fontStyle=1;overflow=hidden;whiteSpace=wrap;html=1;" vertex="1" parent="dMxM86Cvyjp5TYeBCImO-365">
          <mxGeometry width="30" height="60" as="geometry">
            <mxRectangle width="30" height="60" as="alternateBounds" />
          </mxGeometry>
        </mxCell>
        <mxCell id="dMxM86Cvyjp5TYeBCImO-367" value="&lt;table style=&quot;border-collapse:&lt;br/&gt; collapse;width:112pt&quot; width=&quot;150&quot; cellspacing=&quot;0&quot; cellpadding=&quot;0&quot; border=&quot;0&quot;&gt;&lt;tbody&gt;&lt;tr style=&quot;height:13.8pt&quot; height=&quot;18&quot;&gt;&lt;td style=&quot;height:13.8pt;width:112pt&quot; width=&quot;150&quot; class=&quot;xl66&quot; height=&quot;18&quot;&gt;&lt;/td&gt;&lt;/tr&gt;&lt;/tbody&gt;&lt;/table&gt;&lt;table style=&quot;border-collapse:&lt;br/&gt; collapse;width:112pt&quot; width=&quot;150&quot; cellspacing=&quot;0&quot; cellpadding=&quot;0&quot; border=&quot;0&quot;&gt;&lt;tbody&gt;&lt;tr style=&quot;height:13.8pt&quot; height=&quot;18&quot;&gt;&lt;br/&gt;  &lt;td style=&quot;height:13.8pt;width:112pt&quot; width=&quot;150&quot; class=&quot;xl66&quot; height=&quot;18&quot;&gt;CLINICAL_NOTES_ID&lt;/td&gt;&lt;/tr&gt;&lt;/tbody&gt;&lt;/table&gt;" style="shape=partialRectangle;connectable=0;fillColor=none;top=0;left=0;bottom=0;right=0;align=left;spacingLeft=6;fontStyle=5;overflow=hidden;whiteSpace=wrap;html=1;" vertex="1" parent="dMxM86Cvyjp5TYeBCImO-365">
          <mxGeometry x="30" width="150" height="60" as="geometry">
            <mxRectangle width="150" height="60" as="alternateBounds" />
          </mxGeometry>
        </mxCell>
        <mxCell id="dMxM86Cvyjp5TYeBCImO-368" value="" style="shape=tableRow;horizontal=0;startSize=0;swimlaneHead=0;swimlaneBody=0;fillColor=none;collapsible=0;dropTarget=0;points=[[0,0.5],[1,0.5]];portConstraint=eastwest;top=0;left=0;right=0;bottom=0;" vertex="1" parent="dMxM86Cvyjp5TYeBCImO-364">
          <mxGeometry y="110" width="180" height="30" as="geometry" />
        </mxCell>
        <mxCell id="dMxM86Cvyjp5TYeBCImO-369" value="FK" style="shape=partialRectangle;connectable=0;fillColor=none;top=0;left=0;bottom=0;right=0;fontStyle=0;overflow=hidden;whiteSpace=wrap;html=1;" vertex="1" parent="dMxM86Cvyjp5TYeBCImO-368">
          <mxGeometry width="30" height="30" as="geometry">
            <mxRectangle width="30" height="30" as="alternateBounds" />
          </mxGeometry>
        </mxCell>
        <mxCell id="dMxM86Cvyjp5TYeBCImO-370" value="PATIENT_ID" style="shape=partialRectangle;connectable=0;fillColor=none;top=0;left=0;bottom=0;right=0;align=left;spacingLeft=6;fontStyle=0;overflow=hidden;whiteSpace=wrap;html=1;" vertex="1" parent="dMxM86Cvyjp5TYeBCImO-368">
          <mxGeometry x="30" width="150" height="30" as="geometry">
            <mxRectangle width="150" height="30" as="alternateBounds" />
          </mxGeometry>
        </mxCell>
        <mxCell id="dMxM86Cvyjp5TYeBCImO-371" value="" style="shape=tableRow;horizontal=0;startSize=0;swimlaneHead=0;swimlaneBody=0;fillColor=none;collapsible=0;dropTarget=0;points=[[0,0.5],[1,0.5]];portConstraint=eastwest;top=0;left=0;right=0;bottom=0;" vertex="1" parent="dMxM86Cvyjp5TYeBCImO-364">
          <mxGeometry y="140" width="180" height="60" as="geometry" />
        </mxCell>
        <mxCell id="dMxM86Cvyjp5TYeBCImO-372" value="" style="shape=partialRectangle;connectable=0;fillColor=none;top=0;left=0;bottom=0;right=0;editable=1;overflow=hidden;whiteSpace=wrap;html=1;" vertex="1" parent="dMxM86Cvyjp5TYeBCImO-371">
          <mxGeometry width="30" height="60" as="geometry">
            <mxRectangle width="30" height="60" as="alternateBounds" />
          </mxGeometry>
        </mxCell>
        <mxCell id="dMxM86Cvyjp5TYeBCImO-373" value="&lt;br&gt;&lt;table style=&quot;border-collapse:&lt;br/&gt; collapse;width:129pt&quot; width=&quot;172&quot; cellspacing=&quot;0&quot; cellpadding=&quot;0&quot; border=&quot;0&quot;&gt;&lt;tbody&gt;&lt;tr style=&quot;height:13.8pt&quot; height=&quot;18&quot;&gt;  &lt;td style=&quot;height:13.8pt;width:129pt&quot; width=&quot;172&quot; class=&quot;xl66&quot; height=&quot;18&quot;&gt;&lt;table style=&quot;border-collapse:&lt;br/&gt; collapse;width:129pt&quot; width=&quot;172&quot; cellspacing=&quot;0&quot; cellpadding=&quot;0&quot; border=&quot;0&quot;&gt;&lt;tbody&gt;&lt;tr style=&quot;height:13.8pt&quot; height=&quot;18&quot;&gt;&lt;br/&gt;  &lt;td style=&quot;height:13.8pt;width:129pt&quot; width=&quot;172&quot; class=&quot;xl66&quot; height=&quot;18&quot;&gt;NOTE_DATE&lt;/td&gt;&lt;/tr&gt;&lt;/tbody&gt;&lt;/table&gt;&lt;/td&gt;&lt;/tr&gt;&lt;/tbody&gt;&lt;/table&gt;&lt;table style=&quot;border-collapse:&lt;br/&gt; collapse;width:129pt&quot; width=&quot;172&quot; cellspacing=&quot;0&quot; cellpadding=&quot;0&quot; border=&quot;0&quot;&gt;&lt;tbody&gt;&lt;tr style=&quot;height:13.8pt&quot; height=&quot;18&quot;&gt;&lt;td style=&quot;height:13.8pt;width:129pt&quot; width=&quot;172&quot; class=&quot;xl66&quot; height=&quot;18&quot;&gt;&lt;/td&gt;&lt;/tr&gt;&lt;/tbody&gt;&lt;/table&gt;" style="shape=partialRectangle;connectable=0;fillColor=none;top=0;left=0;bottom=0;right=0;align=left;spacingLeft=6;overflow=hidden;whiteSpace=wrap;html=1;" vertex="1" parent="dMxM86Cvyjp5TYeBCImO-371">
          <mxGeometry x="30" width="150" height="60" as="geometry">
            <mxRectangle width="150" height="60" as="alternateBounds" />
          </mxGeometry>
        </mxCell>
        <mxCell id="dMxM86Cvyjp5TYeBCImO-374" value="" style="shape=tableRow;horizontal=0;startSize=0;swimlaneHead=0;swimlaneBody=0;fillColor=none;collapsible=0;dropTarget=0;points=[[0,0.5],[1,0.5]];portConstraint=eastwest;top=0;left=0;right=0;bottom=0;" vertex="1" parent="dMxM86Cvyjp5TYeBCImO-364">
          <mxGeometry y="200" width="180" height="80" as="geometry" />
        </mxCell>
        <mxCell id="dMxM86Cvyjp5TYeBCImO-375" value="" style="shape=partialRectangle;connectable=0;fillColor=none;top=0;left=0;bottom=0;right=0;editable=1;overflow=hidden;whiteSpace=wrap;html=1;" vertex="1" parent="dMxM86Cvyjp5TYeBCImO-374">
          <mxGeometry width="30" height="80" as="geometry">
            <mxRectangle width="30" height="80" as="alternateBounds" />
          </mxGeometry>
        </mxCell>
        <mxCell id="dMxM86Cvyjp5TYeBCImO-376" value="&lt;table style=&quot;border-collapse:&lt;br/&gt; collapse;width:129pt&quot; width=&quot;172&quot; cellspacing=&quot;0&quot; cellpadding=&quot;0&quot; border=&quot;0&quot;&gt;&lt;tbody&gt;&lt;tr style=&quot;height:13.8pt&quot; height=&quot;18&quot;&gt;&lt;td style=&quot;height:13.8pt;width:129pt&quot; width=&quot;172&quot; class=&quot;xl66&quot; height=&quot;18&quot;&gt;&lt;/td&gt;&lt;/tr&gt;&lt;/tbody&gt;&lt;/table&gt;&lt;table style=&quot;border-collapse:&lt;br/&gt; collapse;width:129pt&quot; width=&quot;172&quot; cellspacing=&quot;0&quot; cellpadding=&quot;0&quot; border=&quot;0&quot;&gt;&lt;tbody&gt;&lt;tr style=&quot;height:27.6pt&quot; height=&quot;37&quot;&gt;&lt;br/&gt;  &lt;td style=&quot;height:27.6pt;width:129pt&quot; width=&quot;172&quot; class=&quot;xl66&quot; height=&quot;37&quot;&gt;AUTHOR&lt;/td&gt;&lt;/tr&gt;&lt;/tbody&gt;&lt;/table&gt;" style="shape=partialRectangle;connectable=0;fillColor=none;top=0;left=0;bottom=0;right=0;align=left;spacingLeft=6;overflow=hidden;whiteSpace=wrap;html=1;" vertex="1" parent="dMxM86Cvyjp5TYeBCImO-374">
          <mxGeometry x="30" width="150" height="80" as="geometry">
            <mxRectangle width="150" height="80" as="alternateBounds" />
          </mxGeometry>
        </mxCell>
        <mxCell id="dMxM86Cvyjp5TYeBCImO-377" value="" style="shape=tableRow;horizontal=0;startSize=0;swimlaneHead=0;swimlaneBody=0;fillColor=none;collapsible=0;dropTarget=0;points=[[0,0.5],[1,0.5]];portConstraint=eastwest;top=0;left=0;right=0;bottom=0;" vertex="1" parent="dMxM86Cvyjp5TYeBCImO-364">
          <mxGeometry y="280" width="180" height="80" as="geometry" />
        </mxCell>
        <mxCell id="dMxM86Cvyjp5TYeBCImO-378" value="" style="shape=partialRectangle;connectable=0;fillColor=none;top=0;left=0;bottom=0;right=0;editable=1;overflow=hidden;whiteSpace=wrap;html=1;" vertex="1" parent="dMxM86Cvyjp5TYeBCImO-377">
          <mxGeometry width="30" height="80" as="geometry">
            <mxRectangle width="30" height="80" as="alternateBounds" />
          </mxGeometry>
        </mxCell>
        <mxCell id="dMxM86Cvyjp5TYeBCImO-379" value="&lt;table style=&quot;border-collapse:&lt;br/&gt; collapse;width:129pt&quot; width=&quot;172&quot; cellspacing=&quot;0&quot; cellpadding=&quot;0&quot; border=&quot;0&quot;&gt;&lt;tbody&gt;&lt;tr style=&quot;height:27.6pt&quot; height=&quot;37&quot;&gt;&lt;br/&gt;  &lt;td style=&quot;height:27.6pt;width:129pt&quot; width=&quot;172&quot; class=&quot;xl67&quot; height=&quot;37&quot;&gt;CLINICAL_NOTE&lt;br&gt;&lt;br/&gt;    _TEXT&lt;/td&gt;&lt;/tr&gt;&lt;/tbody&gt;&lt;/table&gt;" style="shape=partialRectangle;connectable=0;fillColor=none;top=0;left=0;bottom=0;right=0;align=left;spacingLeft=6;overflow=hidden;whiteSpace=wrap;html=1;" vertex="1" parent="dMxM86Cvyjp5TYeBCImO-377">
          <mxGeometry x="30" width="150" height="80" as="geometry">
            <mxRectangle width="150" height="80" as="alternateBounds" />
          </mxGeometry>
        </mxCell>
        <mxCell id="dMxM86Cvyjp5TYeBCImO-380" value="&lt;table style=&quot;border-collapse:&lt;br/&gt; collapse;width:112pt&quot; width=&quot;150&quot; cellspacing=&quot;0&quot; cellpadding=&quot;0&quot; border=&quot;0&quot;&gt;&lt;tbody&gt;&lt;tr style=&quot;height:27.6pt&quot; height=&quot;37&quot;&gt;&lt;br/&gt;  &lt;td style=&quot;height:27.6pt;width:112pt&quot; width=&quot;150&quot; class=&quot;xl67&quot; height=&quot;37&quot;&gt;ALLERGIES_AND_&lt;br&gt;&lt;br/&gt;    MEDICAL_HISTORY&lt;/td&gt;&lt;/tr&gt;&lt;/tbody&gt;&lt;/table&gt;" style="shape=table;startSize=60;container=1;collapsible=1;childLayout=tableLayout;fixedRows=1;rowLines=0;fontStyle=1;align=center;resizeLast=1;html=1;" vertex="1" parent="1">
          <mxGeometry x="245" y="840" width="180" height="350" as="geometry" />
        </mxCell>
        <mxCell id="dMxM86Cvyjp5TYeBCImO-381" value="" style="shape=tableRow;horizontal=0;startSize=0;swimlaneHead=0;swimlaneBody=0;fillColor=none;collapsible=0;dropTarget=0;points=[[0,0.5],[1,0.5]];portConstraint=eastwest;top=0;left=0;right=0;bottom=1;" vertex="1" parent="dMxM86Cvyjp5TYeBCImO-380">
          <mxGeometry y="60" width="180" height="70" as="geometry" />
        </mxCell>
        <mxCell id="dMxM86Cvyjp5TYeBCImO-382" value="PK" style="shape=partialRectangle;connectable=0;fillColor=none;top=0;left=0;bottom=0;right=0;fontStyle=1;overflow=hidden;whiteSpace=wrap;html=1;" vertex="1" parent="dMxM86Cvyjp5TYeBCImO-381">
          <mxGeometry width="30" height="70" as="geometry">
            <mxRectangle width="30" height="70" as="alternateBounds" />
          </mxGeometry>
        </mxCell>
        <mxCell id="dMxM86Cvyjp5TYeBCImO-383" value="&lt;table style=&quot;border-collapse:&lt;br/&gt; collapse;width:112pt&quot; width=&quot;150&quot; cellspacing=&quot;0&quot; cellpadding=&quot;0&quot; border=&quot;0&quot;&gt;&lt;tbody&gt;&lt;tr style=&quot;height:13.8pt&quot; height=&quot;18&quot;&gt;&lt;td style=&quot;height:13.8pt;width:112pt&quot; width=&quot;150&quot; class=&quot;xl66&quot; height=&quot;18&quot;&gt;&lt;/td&gt;&lt;/tr&gt;&lt;/tbody&gt;&lt;/table&gt;&lt;table style=&quot;border-collapse:&lt;br/&gt; collapse;width:129pt&quot; width=&quot;172&quot; cellspacing=&quot;0&quot; cellpadding=&quot;0&quot; border=&quot;0&quot;&gt;&lt;tbody&gt;&lt;tr style=&quot;height:27.6pt&quot; height=&quot;37&quot;&gt;&lt;br/&gt;  &lt;td style=&quot;height:27.6pt;width:129pt&quot; width=&quot;172&quot; class=&quot;xl66&quot; height=&quot;37&quot;&gt;HISTORY_ID&lt;/td&gt;&lt;/tr&gt;&lt;/tbody&gt;&lt;/table&gt;" style="shape=partialRectangle;connectable=0;fillColor=none;top=0;left=0;bottom=0;right=0;align=left;spacingLeft=6;fontStyle=5;overflow=hidden;whiteSpace=wrap;html=1;" vertex="1" parent="dMxM86Cvyjp5TYeBCImO-381">
          <mxGeometry x="30" width="150" height="70" as="geometry">
            <mxRectangle width="150" height="70" as="alternateBounds" />
          </mxGeometry>
        </mxCell>
        <mxCell id="dMxM86Cvyjp5TYeBCImO-384" value="" style="shape=tableRow;horizontal=0;startSize=0;swimlaneHead=0;swimlaneBody=0;fillColor=none;collapsible=0;dropTarget=0;points=[[0,0.5],[1,0.5]];portConstraint=eastwest;top=0;left=0;right=0;bottom=0;" vertex="1" parent="dMxM86Cvyjp5TYeBCImO-380">
          <mxGeometry y="130" width="180" height="30" as="geometry" />
        </mxCell>
        <mxCell id="dMxM86Cvyjp5TYeBCImO-385" value="FK" style="shape=partialRectangle;connectable=0;fillColor=none;top=0;left=0;bottom=0;right=0;fontStyle=0;overflow=hidden;whiteSpace=wrap;html=1;" vertex="1" parent="dMxM86Cvyjp5TYeBCImO-384">
          <mxGeometry width="30" height="30" as="geometry">
            <mxRectangle width="30" height="30" as="alternateBounds" />
          </mxGeometry>
        </mxCell>
        <mxCell id="dMxM86Cvyjp5TYeBCImO-386" value="PATIENT_ID" style="shape=partialRectangle;connectable=0;fillColor=none;top=0;left=0;bottom=0;right=0;align=left;spacingLeft=6;fontStyle=0;overflow=hidden;whiteSpace=wrap;html=1;" vertex="1" parent="dMxM86Cvyjp5TYeBCImO-384">
          <mxGeometry x="30" width="150" height="30" as="geometry">
            <mxRectangle width="150" height="30" as="alternateBounds" />
          </mxGeometry>
        </mxCell>
        <mxCell id="dMxM86Cvyjp5TYeBCImO-387" value="" style="shape=tableRow;horizontal=0;startSize=0;swimlaneHead=0;swimlaneBody=0;fillColor=none;collapsible=0;dropTarget=0;points=[[0,0.5],[1,0.5]];portConstraint=eastwest;top=0;left=0;right=0;bottom=0;" vertex="1" parent="dMxM86Cvyjp5TYeBCImO-380">
          <mxGeometry y="160" width="180" height="60" as="geometry" />
        </mxCell>
        <mxCell id="dMxM86Cvyjp5TYeBCImO-388" value="" style="shape=partialRectangle;connectable=0;fillColor=none;top=0;left=0;bottom=0;right=0;editable=1;overflow=hidden;whiteSpace=wrap;html=1;" vertex="1" parent="dMxM86Cvyjp5TYeBCImO-387">
          <mxGeometry width="30" height="60" as="geometry">
            <mxRectangle width="30" height="60" as="alternateBounds" />
          </mxGeometry>
        </mxCell>
        <mxCell id="dMxM86Cvyjp5TYeBCImO-389" value="&lt;table style=&quot;border-collapse:&lt;br/&gt; collapse;width:129pt&quot; width=&quot;172&quot; cellspacing=&quot;0&quot; cellpadding=&quot;0&quot; border=&quot;0&quot;&gt;&lt;tbody&gt;&lt;tr style=&quot;height:13.8pt&quot; height=&quot;18&quot;&gt;&lt;td style=&quot;height:13.8pt;width:129pt&quot; width=&quot;172&quot; class=&quot;xl66&quot; height=&quot;18&quot;&gt;&lt;/td&gt;&lt;/tr&gt;&lt;/tbody&gt;&lt;/table&gt;&lt;table style=&quot;border-collapse:&lt;br/&gt; collapse;width:129pt&quot; width=&quot;172&quot; cellspacing=&quot;0&quot; cellpadding=&quot;0&quot; border=&quot;0&quot;&gt;&lt;tbody&gt;&lt;tr style=&quot;height:13.8pt&quot; height=&quot;18&quot;&gt;&lt;br/&gt;  &lt;td style=&quot;height:13.8pt;width:129pt&quot; width=&quot;172&quot; class=&quot;xl66&quot; height=&quot;18&quot;&gt;MEDICAL_CONDITION&lt;/td&gt;&lt;/tr&gt;&lt;/tbody&gt;&lt;/table&gt;" style="shape=partialRectangle;connectable=0;fillColor=none;top=0;left=0;bottom=0;right=0;align=left;spacingLeft=6;overflow=hidden;whiteSpace=wrap;html=1;" vertex="1" parent="dMxM86Cvyjp5TYeBCImO-387">
          <mxGeometry x="30" width="150" height="60" as="geometry">
            <mxRectangle width="150" height="60" as="alternateBounds" />
          </mxGeometry>
        </mxCell>
        <mxCell id="dMxM86Cvyjp5TYeBCImO-390" value="" style="shape=tableRow;horizontal=0;startSize=0;swimlaneHead=0;swimlaneBody=0;fillColor=none;collapsible=0;dropTarget=0;points=[[0,0.5],[1,0.5]];portConstraint=eastwest;top=0;left=0;right=0;bottom=0;" vertex="1" parent="dMxM86Cvyjp5TYeBCImO-380">
          <mxGeometry y="220" width="180" height="50" as="geometry" />
        </mxCell>
        <mxCell id="dMxM86Cvyjp5TYeBCImO-391" value="" style="shape=partialRectangle;connectable=0;fillColor=none;top=0;left=0;bottom=0;right=0;editable=1;overflow=hidden;whiteSpace=wrap;html=1;" vertex="1" parent="dMxM86Cvyjp5TYeBCImO-390">
          <mxGeometry width="30" height="50" as="geometry">
            <mxRectangle width="30" height="50" as="alternateBounds" />
          </mxGeometry>
        </mxCell>
        <mxCell id="dMxM86Cvyjp5TYeBCImO-392" value="&lt;table style=&quot;border-collapse:&lt;br/&gt; collapse;width:129pt&quot; width=&quot;172&quot; cellspacing=&quot;0&quot; cellpadding=&quot;0&quot; border=&quot;0&quot;&gt;&lt;tbody&gt;&lt;tr style=&quot;height:13.8pt&quot; height=&quot;18&quot;&gt;&lt;br/&gt;  &lt;td style=&quot;height:13.8pt;width:129pt&quot; width=&quot;172&quot; class=&quot;xl66&quot; height=&quot;18&quot;&gt;ALLERGIES&lt;/td&gt;&lt;/tr&gt;&lt;/tbody&gt;&lt;/table&gt;" style="shape=partialRectangle;connectable=0;fillColor=none;top=0;left=0;bottom=0;right=0;align=left;spacingLeft=6;overflow=hidden;whiteSpace=wrap;html=1;" vertex="1" parent="dMxM86Cvyjp5TYeBCImO-390">
          <mxGeometry x="30" width="150" height="50" as="geometry">
            <mxRectangle width="150" height="50" as="alternateBounds" />
          </mxGeometry>
        </mxCell>
        <mxCell id="dMxM86Cvyjp5TYeBCImO-393" value="" style="shape=tableRow;horizontal=0;startSize=0;swimlaneHead=0;swimlaneBody=0;fillColor=none;collapsible=0;dropTarget=0;points=[[0,0.5],[1,0.5]];portConstraint=eastwest;top=0;left=0;right=0;bottom=0;" vertex="1" parent="dMxM86Cvyjp5TYeBCImO-380">
          <mxGeometry y="270" width="180" height="80" as="geometry" />
        </mxCell>
        <mxCell id="dMxM86Cvyjp5TYeBCImO-394" value="&#xa;&#xa;&lt;table style=&quot;border-collapse:&#xa; collapse;width:129pt&quot; width=&quot;172&quot; cellspacing=&quot;0&quot; cellpadding=&quot;0&quot; border=&quot;0&quot;&gt;&#xa; &lt;colgroup&gt;&lt;col style=&quot;mso-width-source:userset;mso-width-alt:6115;width:129pt&quot; width=&quot;172&quot;&gt;&#xa; &lt;/colgroup&gt;&lt;tbody&gt;&lt;tr style=&quot;height:27.6pt&quot; height=&quot;37&quot;&gt;&#xa;&#xa;  &lt;td style=&quot;height:27.6pt;width:129pt&quot; width=&quot;172&quot; class=&quot;xl66&quot; height=&quot;37&quot;&gt;PRESCRIPTION_DATE&lt;/td&gt;&#xa;&#xa; &lt;/tr&gt;&#xa;&lt;/tbody&gt;&lt;/table&gt;&#xa;&#xa;&#xa;&#xa;&#xa;" style="shape=partialRectangle;connectable=0;fillColor=none;top=0;left=0;bottom=0;right=0;editable=1;overflow=hidden;whiteSpace=wrap;html=1;" vertex="1" parent="dMxM86Cvyjp5TYeBCImO-393">
          <mxGeometry width="30" height="80" as="geometry">
            <mxRectangle width="30" height="80" as="alternateBounds" />
          </mxGeometry>
        </mxCell>
        <mxCell id="dMxM86Cvyjp5TYeBCImO-395" value="&lt;table style=&quot;border-collapse:&lt;br/&gt; collapse;width:129pt&quot; width=&quot;172&quot; cellspacing=&quot;0&quot; cellpadding=&quot;0&quot; border=&quot;0&quot;&gt;&lt;tbody&gt;&lt;tr style=&quot;height:27.6pt&quot; height=&quot;37&quot;&gt;&lt;br/&gt;  &lt;td style=&quot;height:27.6pt;width:129pt&quot; width=&quot;172&quot; class=&quot;xl67&quot; height=&quot;37&quot;&gt;MEDICAL_HISTORY&lt;br&gt;&lt;br/&gt;    _DETAILS&lt;/td&gt;&lt;/tr&gt;&lt;/tbody&gt;&lt;/table&gt;" style="shape=partialRectangle;connectable=0;fillColor=none;top=0;left=0;bottom=0;right=0;align=left;spacingLeft=6;overflow=hidden;whiteSpace=wrap;html=1;" vertex="1" parent="dMxM86Cvyjp5TYeBCImO-393">
          <mxGeometry x="30" width="150" height="80" as="geometry">
            <mxRectangle width="150" height="80" as="alternateBounds" />
          </mxGeometry>
        </mxCell>
      </root>
    </mxGraphModel>
  </diagram>
</mxfile>
